<svg width="84" height="106" viewBox="0 0 84 106" fill="none" xmlns="http://www.w3.org/2000/svg">
<path fill-rule="evenodd" clip-rule="evenodd" d="M54.2487 1.41524C54.2487 1.05809 54.1068 0.715566 53.8543 0.463023C53.6018 0.210481 53.2592 0.0686035 52.9021 0.0686035H15.1964C11.2677 0.0686035 7.5 1.62925 4.72204 4.40722C1.94407 7.18519 0.383423 10.9529 0.383423 14.8816V90.293C0.383423 94.2216 1.94407 97.9893 4.72204 100.767C7.5 103.545 11.2677 105.106 15.1964 105.106H69.0617C72.9903 105.106 76.7581 103.545 79.536 100.767C82.314 97.9893 83.8746 94.2216 83.8746 90.293V37.2195C83.8746 36.8623 83.7328 36.5198 83.4802 36.2673C83.2277 36.0147 82.8851 35.8729 82.528 35.8729H58.2886C57.2172 35.8729 56.1896 35.4472 55.432 34.6896C54.6743 33.932 54.2487 32.9044 54.2487 31.833V1.41524ZM58.2886 53.9339C59.3601 53.9339 60.3876 54.3595 61.1453 55.1172C61.9029 55.8748 62.3285 56.9023 62.3285 57.9738C62.3285 59.0452 61.9029 60.0728 61.1453 60.8304C60.3876 61.5881 59.3601 62.0137 58.2886 62.0137H25.9694C24.898 62.0137 23.8704 61.5881 23.1128 60.8304C22.3552 60.0728 21.9295 59.0452 21.9295 57.9738C21.9295 56.9023 22.3552 55.8748 23.1128 55.1172C23.8704 54.3595 24.898 53.9339 25.9694 53.9339H58.2886ZM58.2886 75.48C59.3601 75.48 60.3876 75.9056 61.1453 76.6633C61.9029 77.4209 62.3285 78.4485 62.3285 79.5199C62.3285 80.5914 61.9029 81.6189 61.1453 82.3765C60.3876 83.1342 59.3601 83.5598 58.2886 83.5598H25.9694C24.898 83.5598 23.8704 83.1342 23.1128 82.3765C22.3552 81.6189 21.9295 80.5914 21.9295 79.5199C21.9295 78.4485 22.3552 77.4209 23.1128 76.6633C23.8704 75.9056 24.898 75.48 25.9694 75.48H58.2886Z" fill="#7EAF92"/>
<path d="M62.3285 3.1605C62.3285 2.16938 63.3681 1.53916 64.1384 2.15861C64.7919 2.68649 65.3719 3.30055 65.8782 4.0008L82.1078 26.6081C82.4741 27.1252 82.0755 27.7931 81.4399 27.7931H63.6751C63.318 27.7931 62.9755 27.6512 62.7229 27.3987C62.4704 27.1461 62.3285 26.8036 62.3285 26.4465V3.1605Z" fill="#7EAF92"/>
</svg>
