<svg width="132" height="106" viewBox="0 0 132 106" fill="none" xmlns="http://www.w3.org/2000/svg">
<path d="M0.724294 10.6379C0.557535 11.4811 0.473979 12.3387 0.474829 13.1982V91.9762C0.474829 95.4584 1.85813 98.798 4.32042 101.26C6.78271 103.723 10.1223 105.106 13.6045 105.106H118.642C122.124 105.106 125.464 103.723 127.926 101.26C130.388 98.798 131.771 95.4584 131.771 91.9762V13.1982C131.771 12.4104 131.706 11.6402 131.575 10.8874L125.889 15.1545L74.0929 54.7536C71.8033 56.5035 69.0016 57.4516 66.1199 57.4516C63.2381 57.4516 60.4364 56.5035 58.1469 54.7536L6.27814 15.0889L0.724294 10.6379Z" fill="#7EAF92"/>
<path d="M123.086 0.836704C121.66 0.326233 120.157 0.0663703 118.642 0.068618H13.6045C12.1252 0.0773711 10.7204 0.30714 9.38989 0.757925L14.366 4.74278L66.1232 44.3287L117.985 4.664L123.086 0.836704Z" fill="#7EAF92"/>
</svg>
