<svg width="94" height="94" viewBox="0 0 94 94" fill="none" xmlns="http://www.w3.org/2000/svg">
<rect x="31.3327" y="31.3327" width="31.3327" height="31.3327" rx="8.8045" fill="#14726F"/>
<path d="M62.6669 62.6673H85.1951C90.0577 62.6673 93.9996 66.6092 93.9996 71.4718V85.1955C93.9996 90.0581 90.0577 94 85.1951 94H71.4714C66.6088 94 62.6669 90.0581 62.6669 85.1955V62.6673Z" fill="#14726F"/>
<path d="M31.3327 62.6673H8.80446C3.94187 62.6673 -3.05176e-05 66.6092 -3.05176e-05 71.4718V85.1955C-3.05176e-05 90.0581 3.94188 94 8.80446 94H22.5282C27.3908 94 31.3327 90.0581 31.3327 85.1955V62.6673Z" fill="#14726F"/>
<path d="M62.6669 31.3327H85.1951C90.0577 31.3327 93.9996 27.3908 93.9996 22.5282V8.80449C93.9996 3.9419 90.0577 -1.90735e-06 85.1951 -1.90735e-06H71.4714C66.6088 -1.90735e-06 62.6669 3.94191 62.6669 8.80449V31.3327Z" fill="#14726F"/>
<path d="M31.3327 31.3327H8.80446C3.94187 31.3327 -3.05176e-05 27.3908 -3.05176e-05 22.5282V8.80449C-3.05176e-05 3.9419 3.94188 -1.90735e-06 8.80446 -1.90735e-06H22.5282C27.3908 -1.90735e-06 31.3327 3.94191 31.3327 8.80449V31.3327Z" fill="#14726F"/>
</svg>
