<svg width="60" height="60" viewBox="0 0 60 60" fill="none" xmlns="http://www.w3.org/2000/svg">
<path d="M24.75 33C24.75 33.4925 24.653 33.9801 24.4645 34.4351C24.2761 34.89 23.9999 35.3034 23.6517 35.6517C23.3034 35.9999 22.89 36.2761 22.4351 36.4645C21.9801 36.653 21.4925 36.75 21 36.75C20.0054 36.75 19.0516 36.3549 18.3483 35.6517C17.6451 34.9484 17.25 33.9946 17.25 33C17.25 32.0054 17.6451 31.0516 18.3483 30.3483C19.0516 29.6451 20.0054 29.25 21 29.25C21.4925 29.25 21.9801 29.347 22.4351 29.5355C22.89 29.7239 23.3034 30.0001 23.6517 30.3483C23.9999 30.6966 24.2761 31.11 24.4645 31.5649C24.653 32.0199 24.75 32.5075 24.75 33ZM39 29.25C38.0054 29.25 37.0516 29.6451 36.3483 30.3483C35.6451 31.0516 35.25 32.0054 35.25 33C35.25 33.9946 35.6451 34.9484 36.3483 35.6517C37.0516 36.3549 38.0054 36.75 39 36.75C39.9946 36.75 40.9484 36.3549 41.6517 35.6517C42.3549 34.9484 42.75 33.9946 42.75 33C42.75 32.0054 42.3549 31.0516 41.6517 30.3483C40.9484 29.6451 39.9946 29.25 39 29.25ZM60 30C60 37.9565 56.8393 45.5871 51.2132 51.2132C45.5871 56.8393 37.9565 60 30 60C26.0603 60 22.1593 59.224 18.5195 57.7164C14.8797 56.2087 11.5726 53.999 8.7868 51.2132C3.16071 45.5871 0 37.9565 0 30C0 22.0435 3.16071 14.4129 8.7868 8.7868C14.4129 3.16071 22.0435 0 30 0C33.9397 0 37.8407 0.775973 41.4805 2.28361C45.1203 3.79126 48.4274 6.00104 51.2132 8.7868C53.999 11.5726 56.2087 14.8797 57.7164 18.5195C59.224 22.1593 60 26.0603 60 30ZM25.98 6.36C30.18 13.32 37.8 18 46.5 18C47.88 18 49.23 17.85 50.52 17.64C46.32 10.68 38.7 6 30 6C28.62 6 27.27 6.15 25.98 6.36ZM7.26 22.41C12.436 19.4744 16.346 14.7311 18.24 9.09C13.064 12.0256 9.15398 16.7689 7.26 22.41ZM54 30C54 27.66 53.64 25.41 53.01 23.28C50.91 23.73 48.75 24 46.5 24C42.0408 24.001 37.6375 23.0079 33.6104 21.0929C29.5833 19.178 26.0338 16.3894 23.22 12.93C21.6441 16.7373 19.3024 20.18 16.3401 23.0443C13.3778 25.9085 9.85821 28.1332 6 29.58V30C6 43.23 16.77 54 30 54C43.23 54 54 43.23 54 30Z" fill="white"/>
</svg>
