<svg width="71" height="67" viewBox="0 0 71 67" fill="none" xmlns="http://www.w3.org/2000/svg">
<path d="M49.0903 42.6363L47.3115 44.4073C47.3115 44.4073 43.0776 48.6138 31.5252 37.1279C19.9728 25.642 24.2067 21.4354 24.2067 21.4354L25.3248 20.3173C28.0888 17.5729 28.3507 13.163 25.9386 9.94164L21.0127 3.36204C18.0259 -0.625591 12.2595 -1.15337 8.83869 2.24785L2.70086 8.34658C1.00807 10.0355 -0.125665 12.2169 0.0111654 14.6408C0.363015 20.8451 3.16999 34.188 18.8234 49.7554C35.4268 66.2611 51.0059 66.9179 57.3744 66.3236C59.3917 66.136 61.1431 65.1117 62.5544 63.7043L68.1059 58.1842C71.8589 54.4585 70.8034 48.0665 66.0026 45.4589L58.5355 41.397C55.3845 39.6886 51.5533 40.189 49.0903 42.6363Z" fill="#14726F"/>
</svg>
