<svg width="47" height="67" viewBox="0 0 47 67" fill="none" xmlns="http://www.w3.org/2000/svg">
<path d="M23.261 0C10.401 0 0 10.401 0 23.261C0 40.7067 23.261 66.46 23.261 66.46C23.261 66.46 46.522 40.7067 46.522 23.261C46.522 10.401 36.121 0 23.261 0ZM23.261 31.5685C21.0577 31.5685 18.9447 30.6932 17.3867 29.1353C15.8288 27.5773 14.9535 25.4643 14.9535 23.261C14.9535 21.0577 15.8288 18.9447 17.3867 17.3867C18.9447 15.8288 21.0577 14.9535 23.261 14.9535C25.4643 14.9535 27.5773 15.8288 29.1353 17.3867C30.6932 18.9447 31.5685 21.0577 31.5685 23.261C31.5685 25.4643 30.6932 27.5773 29.1353 29.1353C27.5773 30.6932 25.4643 31.5685 23.261 31.5685Z" fill="#14726F"/>
</svg>
