<svg width="34" height="34" viewBox="0 0 34 34" fill="none" xmlns="http://www.w3.org/2000/svg">
<path d="M16.8442 11.2775C13.74 11.2775 11.2375 13.8131 11.2375 16.9041C11.2375 19.9952 13.7641 22.5308 16.8442 22.5308C19.9242 22.5308 22.4509 19.9952 22.4509 16.9041C22.4509 13.8131 19.9242 11.2775 16.8442 11.2775ZM33.6883 16.9041C33.6883 14.5617 33.6883 12.2676 33.568 9.92515C33.4477 7.22048 32.8221 4.80561 30.8489 2.84956C28.8757 0.869356 26.4935 0.241488 23.7984 0.120744C21.4643 -1.1695e-07 19.1783 0 16.8442 0C14.51 0 12.2241 -1.1695e-07 9.88993 0.120744C7.19487 0.241488 4.78856 0.869356 2.83945 2.84956C0.866272 4.82976 0.240631 7.22048 0.120315 9.92515C-1.16535e-07 12.2676 0 14.5617 0 16.9041C0 19.2466 -1.16535e-07 21.5407 0.120315 23.8831C0.240631 26.5878 0.866272 29.0027 2.83945 30.9587C4.81262 32.9389 7.19487 33.5668 9.88993 33.6875C12.2241 33.8083 14.51 33.8083 16.8442 33.8083C19.1783 33.8083 21.4643 33.8083 23.7984 33.6875C26.4935 33.5668 28.8998 32.9389 30.8489 30.9587C32.8221 28.9785 33.4477 26.5878 33.568 23.8831C33.7124 21.5649 33.6883 19.2466 33.6883 16.9041ZM16.8442 25.5736C12.0556 25.5736 8.20552 21.7097 8.20552 16.9041C8.20552 12.0985 12.0556 8.23473 16.8442 8.23473C21.6327 8.23473 25.4828 12.0985 25.4828 16.9041C25.4828 21.7097 21.6327 25.5736 16.8442 25.5736ZM25.8438 9.901C24.7369 9.901 23.8225 9.00749 23.8225 7.8725C23.8225 6.73751 24.7128 5.844 25.8438 5.844C26.9747 5.844 27.8651 6.73751 27.8651 7.8725C27.8712 8.13702 27.823 8.39997 27.7237 8.64506C27.6244 8.89014 27.4759 9.11214 27.2876 9.29728C27.1031 9.4863 26.8819 9.63528 26.6376 9.73497C26.3934 9.83467 26.1314 9.88296 25.8678 9.87685L25.8438 9.901Z" fill="#14726F"/>
</svg>
