<svg width="60" height="61" viewBox="0 0 60 61" fill="none" xmlns="http://www.w3.org/2000/svg">
<path d="M21 29.75C20.0054 29.75 19.0516 30.1451 18.3484 30.8484C17.6451 31.5516 17.25 32.5054 17.25 33.5C17.25 34.4946 17.6451 35.4484 18.3484 36.1517C19.0516 36.8549 20.0054 37.25 21 37.25C21.4925 37.25 21.9801 37.153 22.4351 36.9645C22.89 36.7761 23.3034 36.4999 23.6517 36.1517C23.9999 35.8034 24.2761 35.39 24.4645 34.9351C24.653 34.4801 24.75 33.9925 24.75 33.5C24.75 33.0075 24.653 32.5199 24.4645 32.0649C24.2761 31.61 23.9999 31.1966 23.6517 30.8484C23.3034 30.5001 22.89 30.2239 22.4351 30.0355C21.9801 29.847 21.4925 29.75 21 29.75ZM39 29.75C38.0054 29.75 37.0516 30.1451 36.3484 30.8484C35.6451 31.5516 35.25 32.5054 35.25 33.5C35.25 34.4946 35.6451 35.4484 36.3484 36.1517C37.0516 36.8549 38.0054 37.25 39 37.25C39.9946 37.25 40.9484 36.8549 41.6517 36.1517C42.3549 35.4484 42.75 34.4946 42.75 33.5C42.75 32.5054 42.3549 31.5516 41.6517 30.8484C40.9484 30.1451 39.9946 29.75 39 29.75ZM30 0.5C26.0603 0.5 22.1593 1.27597 18.5195 2.78361C14.8797 4.29126 11.5726 6.50104 8.7868 9.2868C3.16071 14.9129 0 22.5435 0 30.5C0 38.4565 3.16071 46.0871 8.7868 51.7132C11.5726 54.499 14.8797 56.7088 18.5195 58.2164C22.1593 59.724 26.0603 60.5 30 60.5C37.9565 60.5 45.5871 57.3393 51.2132 51.7132C56.8393 46.0871 60 38.4565 60 30.5C60 26.5603 59.224 22.6593 57.7164 19.0195C56.2088 15.3797 53.999 12.0726 51.2132 9.2868C48.4274 6.50104 45.1203 4.29126 41.4805 2.78361C37.8407 1.27597 33.9397 0.5 30 0.5ZM30 54.5C16.77 54.5 6 43.73 6 30.5C6 29.63 6 28.76 6.15 27.92C13.23 24.77 18.84 18.98 21.78 11.81C25.2087 16.6784 30.0124 20.4125 35.5761 22.5343C41.1399 24.6561 47.2103 25.069 53.01 23.72C53.64 25.85 54 28.13 54 30.5C54 43.73 43.23 54.5 30 54.5Z" fill="white"/>
</svg>
