<svg width="92" height="66" viewBox="0 0 92 66" fill="none" xmlns="http://www.w3.org/2000/svg">
<path d="M83.017 0C85.205 0 87.3034 0.869194 88.8506 2.41637C90.3978 3.96354 91.267 6.06196 91.267 8.25V57.75C91.267 59.938 90.3978 62.0365 88.8506 63.5836C87.3034 65.1308 85.205 66 83.017 66H17.017C14.8289 66 12.7305 65.1308 11.1833 63.5836C9.63617 62.0365 8.76697 59.938 8.76697 57.75V53.625H17.017V57.75H83.017V14.1199L54.4101 42.7267C53.2498 43.8867 51.6762 44.5384 50.0355 44.5384C48.3948 44.5384 46.8213 43.8867 45.661 42.7267L17.017 14.0828V16.5H8.76697V8.25C8.76697 6.06196 9.63617 3.96354 11.1833 2.41637C12.7305 0.869194 14.8289 0 17.017 0H83.017ZM25.267 37.125C26.3184 37.1262 27.3296 37.5288 28.0941 38.2505C28.8586 38.9722 29.3187 39.9587 29.3803 41.0083C29.4419 42.0578 29.1004 43.0913 28.4256 43.8976C27.7508 44.7038 26.7936 45.2219 25.7496 45.3461L25.267 45.375H4.64197C3.5906 45.3738 2.57934 44.9712 1.81483 44.2495C1.05032 43.5278 0.590256 42.5413 0.528641 41.4917C0.467025 40.4422 0.808508 39.4087 1.48332 38.6024C2.15813 37.7962 3.11533 37.2781 4.15935 37.1539L4.64197 37.125H25.267ZM21.142 24.75C22.236 24.75 23.2852 25.1846 24.0588 25.9582C24.8324 26.7318 25.267 27.781 25.267 28.875C25.267 29.969 24.8324 31.0182 24.0588 31.7918C23.2852 32.5654 22.236 33 21.142 33H8.76697C7.67296 33 6.62375 32.5654 5.85016 31.7918C5.07657 31.0182 4.64197 29.969 4.64197 28.875C4.64197 27.781 5.07657 26.7318 5.85016 25.9582C6.62375 25.1846 7.67296 24.75 8.76697 24.75H21.142Z" fill="#14726F"/>
</svg>
