<svg width="132" height="106" viewBox="0 0 132 106" fill="none" xmlns="http://www.w3.org/2000/svg">
<path d="M105.387 59.1521C107.247 59.1521 108.807 58.5219 110.068 57.2614C111.328 56.001 111.956 54.4429 111.952 52.5873C111.948 50.7316 111.317 49.1735 110.061 47.9131C108.805 46.6527 107.247 46.0224 105.387 46.0224H85.6926C83.8326 46.0224 82.2745 46.6527 81.0184 47.9131C79.7624 49.1735 79.1322 50.7316 79.1278 52.5873C79.1234 54.4429 79.7536 56.0032 81.0184 57.268C82.2833 58.5328 83.8413 59.1608 85.6926 59.1521H105.387ZM105.387 39.4576C107.247 39.4576 108.807 38.8274 110.068 37.5669C111.328 36.3065 111.956 34.7484 111.952 32.8928C111.948 31.0371 111.317 29.4791 110.061 28.2186C108.805 26.9582 107.247 26.3279 105.387 26.3279H85.6926C83.8326 26.3279 82.2745 26.9582 81.0184 28.2186C79.7624 29.4791 79.1322 31.0371 79.1278 32.8928C79.1234 34.7484 79.7536 36.3087 81.0184 37.5735C82.2833 38.8383 83.8413 39.4664 85.6926 39.4576H105.387ZM46.3036 59.1521C42.3647 59.1521 38.8088 59.5088 35.6358 60.2222C32.4628 60.9355 29.6727 62.0559 27.2656 63.5834C24.9679 65.0057 23.2173 66.6207 22.0137 68.4282C20.8102 70.2357 20.2084 72.1767 20.2084 74.2512C20.2084 75.5642 20.7008 76.6583 21.6855 77.5336C22.6702 78.4089 23.8738 78.8466 25.2962 78.8466H67.3111C68.7335 78.8466 69.937 78.3805 70.9217 77.4483C71.9065 76.5161 72.3988 75.341 72.3988 73.923C72.3988 72.0629 71.7971 70.2576 70.5935 68.507C69.3899 66.7564 67.6393 65.1152 65.3416 63.5834C62.9345 62.0516 60.1445 60.929 56.9715 60.2156C53.7985 59.5022 50.2425 59.1477 46.3036 59.1521ZM46.3036 52.5873C49.9143 52.5873 53.0041 51.3027 55.5732 48.7337C58.1422 46.1647 59.4289 43.0726 59.4333 39.4576C59.4377 35.8426 58.1531 32.7527 55.5797 30.1881C53.0063 27.6234 49.9143 26.3367 46.3036 26.3279C42.693 26.3192 39.6031 27.6059 37.0341 30.1881C34.465 32.7702 33.1783 35.8601 33.174 39.4576C33.1696 43.0551 34.4563 46.1472 37.0341 48.7337C39.6119 51.3202 42.7017 52.6048 46.3036 52.5873ZM13.4795 105.106C9.8688 105.106 6.77895 103.821 4.20991 101.252C1.64088 98.6833 0.354169 95.5913 0.349792 91.9763V13.1983C0.349792 9.58761 1.6365 6.49776 4.20991 3.92872C6.78333 1.35969 9.87318 0.0729801 13.4795 0.0686035H118.517C122.127 0.0686035 125.219 1.35531 127.793 3.92872C130.366 6.50214 131.651 9.59199 131.646 13.1983V91.9763C131.646 95.5869 130.362 98.6789 127.793 101.252C125.224 103.826 122.132 105.11 118.517 105.106H13.4795Z" fill="#7EAF92"/>
</svg>
