<svg width="819" height="151" viewBox="0 0 819 151" fill="none" xmlns="http://www.w3.org/2000/svg">
<path d="M246.063 2.12V22.72C246.063 25.0133 245.356 26.8533 243.943 28.24C242.529 29.6 240.663 30.28 238.343 30.28C235.996 30.28 234.116 29.5867 232.703 28.2C231.289 26.7867 230.583 24.8667 230.583 22.44H234.223C234.249 23.8 234.596 24.9067 235.263 25.76C235.956 26.6133 236.983 27.04 238.343 27.04C239.703 27.04 240.716 26.64 241.383 25.84C242.049 25.0133 242.383 23.9733 242.383 22.72V2.12H246.063ZM272.674 8.08V30H269.034V26.76C268.34 27.88 267.367 28.76 266.114 29.4C264.887 30.0133 263.527 30.32 262.034 30.32C260.327 30.32 258.794 29.9733 257.434 29.28C256.074 28.56 254.994 27.4933 254.194 26.08C253.42 24.6667 253.034 22.9467 253.034 20.92V8.08H256.634V20.44C256.634 22.6 257.18 24.2667 258.274 25.44C259.367 26.5867 260.86 27.16 262.754 27.16C264.7 27.16 266.234 26.56 267.354 25.36C268.474 24.16 269.034 22.4133 269.034 20.12V8.08H272.674ZM305.179 7.68C306.886 7.68 308.406 8.04 309.739 8.76C311.073 9.45333 312.126 10.5067 312.899 11.92C313.673 13.3333 314.059 15.0533 314.059 17.08V30H310.459V17.6C310.459 15.4133 309.913 13.7467 308.819 12.6C307.753 11.4267 306.299 10.84 304.459 10.84C302.566 10.84 301.059 11.4533 299.939 12.68C298.819 13.88 298.259 15.6267 298.259 17.92V30H294.659V17.6C294.659 15.4133 294.113 13.7467 293.019 12.6C291.953 11.4267 290.499 10.84 288.659 10.84C286.766 10.84 285.259 11.4533 284.139 12.68C283.019 13.88 282.459 15.6267 282.459 17.92V30H278.819V8.08H282.459V11.24C283.179 10.0933 284.139 9.21333 285.339 8.6C286.566 7.98667 287.913 7.68 289.379 7.68C291.219 7.68 292.846 8.09333 294.259 8.92C295.673 9.74667 296.726 10.96 297.419 12.56C298.033 11.0133 299.046 9.81333 300.459 8.96C301.873 8.10667 303.446 7.68 305.179 7.68ZM323.67 0.4V30H320.03V0.4H323.67ZM328.514 18.96C328.514 16.72 328.967 14.76 329.874 13.08C330.781 11.3733 332.021 10.0533 333.594 9.12C335.194 8.18667 336.967 7.72 338.914 7.72C340.834 7.72 342.501 8.13333 343.914 8.96C345.327 9.78667 346.381 10.8267 347.074 12.08V8.08H350.754V30H347.074V25.92C346.354 27.2 345.274 28.2667 343.834 29.12C342.421 29.9467 340.767 30.36 338.874 30.36C336.927 30.36 335.167 29.88 333.594 28.92C332.021 27.96 330.781 26.6133 329.874 24.88C328.967 23.1467 328.514 21.1733 328.514 18.96ZM347.074 19C347.074 17.3467 346.741 15.9067 346.074 14.68C345.407 13.4533 344.501 12.52 343.354 11.88C342.234 11.2133 340.994 10.88 339.634 10.88C338.274 10.88 337.034 11.2 335.914 11.84C334.794 12.48 333.901 13.4133 333.234 14.64C332.567 15.8667 332.234 17.3067 332.234 18.96C332.234 20.64 332.567 22.1067 333.234 23.36C333.901 24.5867 334.794 25.5333 335.914 26.2C337.034 26.84 338.274 27.16 339.634 27.16C340.994 27.16 342.234 26.84 343.354 26.2C344.501 25.5333 345.407 24.5867 346.074 23.36C346.741 22.1067 347.074 20.6533 347.074 19ZM367.785 7.68C369.439 7.68 370.932 8.04 372.265 8.76C373.599 9.45333 374.639 10.5067 375.385 11.92C376.159 13.3333 376.545 15.0533 376.545 17.08V30H372.945V17.6C372.945 15.4133 372.399 13.7467 371.305 12.6C370.212 11.4267 368.719 10.84 366.825 10.84C364.905 10.84 363.372 11.44 362.225 12.64C361.105 13.84 360.545 15.5867 360.545 17.88V30H356.905V0.4H360.545V11.2C361.265 10.08 362.252 9.21333 363.505 8.6C364.785 7.98667 366.212 7.68 367.785 7.68ZM411.795 10.28C411.795 12.6 410.995 14.5333 409.395 16.08C407.822 17.6 405.409 18.36 402.155 18.36H396.795V30H393.155V2.12H402.155C405.302 2.12 407.689 2.88 409.315 4.4C410.969 5.92 411.795 7.88 411.795 10.28ZM402.155 15.36C404.182 15.36 405.675 14.92 406.635 14.04C407.595 13.16 408.075 11.9067 408.075 10.28C408.075 6.84 406.102 5.12 402.155 5.12H396.795V15.36H402.155ZM436.319 18.2C436.319 18.8933 436.279 19.6267 436.199 20.4H418.679C418.813 22.56 419.546 24.2533 420.879 25.48C422.239 26.68 423.879 27.28 425.799 27.28C427.373 27.28 428.679 26.92 429.719 26.2C430.786 25.4533 431.533 24.4667 431.959 23.24H435.879C435.293 25.3467 434.119 27.0667 432.359 28.4C430.599 29.7067 428.413 30.36 425.799 30.36C423.719 30.36 421.853 29.8933 420.199 28.96C418.573 28.0267 417.293 26.7067 416.359 25C415.426 23.2667 414.959 21.2667 414.959 19C414.959 16.7333 415.413 14.7467 416.319 13.04C417.226 11.3333 418.493 10.0267 420.119 9.12C421.773 8.18667 423.666 7.72 425.799 7.72C427.879 7.72 429.719 8.17333 431.319 9.08C432.919 9.98667 434.146 11.24 434.999 12.84C435.879 14.4133 436.319 16.2 436.319 18.2ZM432.559 17.44C432.559 16.0533 432.253 14.8667 431.639 13.88C431.026 12.8667 430.186 12.1067 429.119 11.6C428.079 11.0667 426.919 10.8 425.639 10.8C423.799 10.8 422.226 11.3867 420.919 12.56C419.639 13.7333 418.906 15.36 418.719 17.44H432.559ZM451.804 7.68C454.471 7.68 456.631 8.49333 458.284 10.12C459.937 11.72 460.764 14.04 460.764 17.08V30H457.164V17.6C457.164 15.4133 456.617 13.7467 455.524 12.6C454.431 11.4267 452.937 10.84 451.044 10.84C449.124 10.84 447.591 11.44 446.444 12.64C445.324 13.84 444.764 15.5867 444.764 17.88V30H441.124V8.08H444.764V11.2C445.484 10.08 446.457 9.21333 447.684 8.6C448.937 7.98667 450.311 7.68 451.804 7.68ZM465.35 18.96C465.35 16.72 465.803 14.76 466.71 13.08C467.617 11.3733 468.857 10.0533 470.43 9.12C472.03 8.18667 473.817 7.72 475.79 7.72C477.497 7.72 479.083 8.12 480.55 8.92C482.017 9.69333 483.137 10.72 483.91 12V0.4H487.59V30H483.91V25.88C483.19 27.1867 482.123 28.2667 480.71 29.12C479.297 29.9467 477.643 30.36 475.75 30.36C473.803 30.36 472.03 29.88 470.43 28.92C468.857 27.96 467.617 26.6133 466.71 24.88C465.803 23.1467 465.35 21.1733 465.35 18.96ZM483.91 19C483.91 17.3467 483.577 15.9067 482.91 14.68C482.243 13.4533 481.337 12.52 480.19 11.88C479.07 11.2133 477.83 10.88 476.47 10.88C475.11 10.88 473.87 11.2 472.75 11.84C471.63 12.48 470.737 13.4133 470.07 14.64C469.403 15.8667 469.07 17.3067 469.07 18.96C469.07 20.64 469.403 22.1067 470.07 23.36C470.737 24.5867 471.63 25.5333 472.75 26.2C473.87 26.84 475.11 27.16 476.47 27.16C477.83 27.16 479.07 26.84 480.19 26.2C481.337 25.5333 482.243 24.5867 482.91 23.36C483.577 22.1067 483.91 20.6533 483.91 19ZM513.181 8.08V30H509.541V26.76C508.848 27.88 507.875 28.76 506.621 29.4C505.395 30.0133 504.035 30.32 502.541 30.32C500.835 30.32 499.301 29.9733 497.941 29.28C496.581 28.56 495.501 27.4933 494.701 26.08C493.928 24.6667 493.541 22.9467 493.541 20.92V8.08H497.141V20.44C497.141 22.6 497.688 24.2667 498.781 25.44C499.875 26.5867 501.368 27.16 503.261 27.16C505.208 27.16 506.741 26.56 507.861 25.36C508.981 24.16 509.541 22.4133 509.541 20.12V8.08H513.181ZM517.967 18.96C517.967 16.72 518.421 14.76 519.327 13.08C520.234 11.3733 521.474 10.0533 523.047 9.12C524.647 8.18667 526.434 7.72 528.407 7.72C530.114 7.72 531.701 8.12 533.167 8.92C534.634 9.69333 535.754 10.72 536.527 12V0.4H540.207V30H536.527V25.88C535.807 27.1867 534.741 28.2667 533.327 29.12C531.914 29.9467 530.261 30.36 528.367 30.36C526.421 30.36 524.647 29.88 523.047 28.92C521.474 27.96 520.234 26.6133 519.327 24.88C518.421 23.1467 517.967 21.1733 517.967 18.96ZM536.527 19C536.527 17.3467 536.194 15.9067 535.527 14.68C534.861 13.4533 533.954 12.52 532.807 11.88C531.687 11.2133 530.447 10.88 529.087 10.88C527.727 10.88 526.487 11.2 525.367 11.84C524.247 12.48 523.354 13.4133 522.687 14.64C522.021 15.8667 521.687 17.3067 521.687 18.96C521.687 20.64 522.021 22.1067 522.687 23.36C523.354 24.5867 524.247 25.5333 525.367 26.2C526.487 26.84 527.727 27.16 529.087 27.16C530.447 27.16 531.687 26.84 532.807 26.2C533.954 25.5333 534.861 24.5867 535.527 23.36C536.194 22.1067 536.527 20.6533 536.527 19ZM565.799 8.08V30H562.159V26.76C561.465 27.88 560.492 28.76 559.239 29.4C558.012 30.0133 556.652 30.32 555.159 30.32C553.452 30.32 551.919 29.9733 550.559 29.28C549.199 28.56 548.119 27.4933 547.319 26.08C546.545 24.6667 546.159 22.9467 546.159 20.92V8.08H549.759V20.44C549.759 22.6 550.305 24.2667 551.399 25.44C552.492 26.5867 553.985 27.16 555.879 27.16C557.825 27.16 559.359 26.56 560.479 25.36C561.599 24.16 562.159 22.4133 562.159 20.12V8.08H565.799ZM584.184 30L575.584 20.32V30H571.944V0.4H575.584V17.8L584.024 8.08H589.104L578.784 19L589.144 30H584.184Z" fill="white"/>
<path d="M72.2634 102.375C73.4353 103.026 74.5029 103.82 75.4664 104.758C76.43 105.695 77.2372 106.737 77.8882 107.883C78.5393 109.029 79.0601 110.24 79.4507 111.516C79.8413 112.792 80.0236 114.12 79.9976 115.5H74.9977C74.9977 114.146 74.7373 112.857 74.2165 111.633C73.6957 110.409 72.9795 109.354 72.0681 108.469C71.1567 107.583 70.089 106.867 68.8651 106.32C67.6412 105.773 66.3521 105.5 64.998 105.5C63.6179 105.5 62.3288 105.76 61.1309 106.281C59.9331 106.802 58.8784 107.518 57.967 108.43C57.0555 109.341 56.3394 110.409 55.8186 111.633C55.2978 112.857 55.0244 114.146 54.9983 115.5C54.9983 117.87 54.4645 120.122 53.3968 122.258C52.3291 124.393 50.8318 126.164 48.9048 127.57C50.5974 128.43 52.1208 129.484 53.4749 130.734C54.8291 131.984 56.0009 133.391 56.9904 134.953C57.98 136.516 58.7222 138.182 59.2169 139.953C59.7117 141.724 59.9721 143.573 59.9982 145.5H54.9983C54.9983 143.443 54.6077 141.503 53.8265 139.68C53.0453 137.857 51.9646 136.268 50.5844 134.914C49.2042 133.56 47.6157 132.492 45.8189 131.711C44.0221 130.93 42.0821 130.526 39.9988 130.5C37.9416 130.5 36.0015 130.891 34.1786 131.672C32.3558 132.453 30.7673 133.534 29.4132 134.914C28.059 136.294 26.9914 137.883 26.2101 139.68C25.4289 141.477 25.0253 143.417 24.9992 145.5H19.9994C19.9994 143.599 20.2598 141.763 20.7806 139.992C21.3014 138.221 22.0436 136.555 23.0071 134.992C23.9706 133.43 25.1294 132.023 26.4836 130.773C27.8377 129.523 29.3741 128.456 31.0928 127.57C29.1918 126.164 27.7075 124.393 26.6398 122.258C25.5721 120.122 25.0253 117.87 24.9992 115.5C24.9992 114.146 24.7388 112.857 24.218 111.633C23.6972 110.409 22.9811 109.354 22.0696 108.469C21.1582 107.583 20.0905 106.867 18.8666 106.32C17.6427 105.773 16.3537 105.5 14.9995 105.5C13.6194 105.5 12.3304 105.76 11.1325 106.281C9.93459 106.802 8.87994 107.518 7.96851 108.43C7.05708 109.341 6.34095 110.409 5.82014 111.633C5.29932 112.857 5.02589 114.146 4.99985 115.5H0C0 114.146 0.182286 112.831 0.546858 111.555C0.91143 110.279 1.41923 109.068 2.07025 107.922C2.72127 106.776 3.54156 105.734 4.53111 104.797C5.52066 103.859 6.58834 103.052 7.73414 102.375C6.87479 101.464 6.21075 100.409 5.74201 99.2109C5.27328 98.013 5.02589 96.776 4.99985 95.5C4.99985 94.1458 5.26026 92.8568 5.78107 91.6328C6.30189 90.4089 7.01801 89.3542 7.92945 88.4688C8.84088 87.5833 9.89553 86.8672 11.0934 86.3203C12.2913 85.7734 13.5933 85.5 14.9995 85.5C16.3537 85.5 17.6427 85.7604 18.8666 86.2812C20.0905 86.8021 21.1452 87.5182 22.0306 88.4297C22.916 89.3411 23.6321 90.4089 24.1789 91.6328C24.7258 92.8568 24.9992 94.1458 24.9992 95.5C24.9992 96.776 24.7649 98.013 24.2961 99.2109C23.8274 100.409 23.1503 101.464 22.2649 102.375C24.4003 103.547 26.145 105.161 27.4992 107.219C28.9054 105.135 30.7022 103.495 32.8896 102.297C35.0771 101.099 37.4468 100.5 39.9988 100.5C42.5247 100.5 44.8814 101.099 47.0689 102.297C49.2563 103.495 51.0662 105.135 52.4984 107.219C53.8525 105.161 55.5973 103.547 57.7326 102.375C56.8733 101.464 56.2092 100.409 55.7405 99.2109C55.2718 98.013 55.0244 96.776 54.9983 95.5C54.9983 94.1458 55.2587 92.8568 55.7795 91.6328C56.3004 90.4089 57.0165 89.3542 57.9279 88.4688C58.8394 87.5833 59.894 86.8672 61.0919 86.3203C62.2898 85.7734 63.5918 85.5 64.998 85.5C66.3521 85.5 67.6412 85.7604 68.8651 86.2812C70.089 86.8021 71.1437 87.5182 72.0291 88.4297C72.9144 89.3411 73.6306 90.4089 74.1774 91.6328C74.7243 92.8568 74.9977 94.1458 74.9977 95.5C74.9977 96.776 74.7633 98.013 74.2946 99.2109C73.8259 100.409 73.1488 101.464 72.2634 102.375ZM9.99969 95.5C9.99969 96.2031 10.1299 96.8542 10.3903 97.4531C10.6507 98.0521 11.0023 98.5729 11.445 99.0156C11.8877 99.4583 12.4215 99.8229 13.0465 100.109C13.6715 100.396 14.3225 100.526 14.9995 100.5C15.7026 100.5 16.3537 100.37 16.9526 100.109C17.5515 99.849 18.0724 99.4974 18.5151 99.0547C18.9578 98.612 19.3223 98.0781 19.6088 97.4531C19.8952 96.8281 20.0254 96.1771 19.9994 95.5C19.9994 94.7969 19.8692 94.1458 19.6088 93.5469C19.3484 92.9479 18.9968 92.4271 18.5541 91.9844C18.1114 91.5417 17.5776 91.1771 16.9526 90.8906C16.3276 90.6042 15.6766 90.474 14.9995 90.5C14.2964 90.5 13.6454 90.6302 13.0465 90.8906C12.4475 91.151 11.9267 91.5026 11.484 91.9453C11.0413 92.388 10.6768 92.9219 10.3903 93.5469C10.1039 94.1719 9.97365 94.8229 9.99969 95.5ZM39.9988 125.5C41.3529 125.5 42.6419 125.24 43.8658 124.719C45.0898 124.198 46.1444 123.482 47.0298 122.57C47.9152 121.659 48.6313 120.604 49.1782 119.406C49.725 118.208 49.9985 116.906 49.9985 115.5C49.9985 114.146 49.7381 112.857 49.2172 111.633C48.6964 110.409 47.9803 109.354 47.0689 108.469C46.1574 107.583 45.0898 106.867 43.8658 106.32C42.6419 105.773 41.3529 105.5 39.9988 105.5C38.6186 105.5 37.3296 105.76 36.1317 106.281C34.9338 106.802 33.8792 107.518 32.9677 108.43C32.0563 109.341 31.3402 110.409 30.8194 111.633C30.2986 112.857 30.0251 114.146 29.9991 115.5C29.9991 116.88 30.2595 118.169 30.7803 119.367C31.3011 120.565 32.0173 121.62 32.9287 122.531C33.8401 123.443 34.8948 124.159 36.0926 124.68C37.2905 125.201 38.5926 125.474 39.9988 125.5ZM59.9982 95.5C59.9982 96.2031 60.1284 96.8542 60.3888 97.4531C60.6492 98.0521 61.0007 98.5729 61.4434 99.0156C61.8861 99.4583 62.42 99.8229 63.045 100.109C63.6699 100.396 64.321 100.526 64.998 100.5C65.7011 100.5 66.3521 100.37 66.9511 100.109C67.55 99.849 68.0708 99.4974 68.5135 99.0547C68.9562 98.612 69.3208 98.0781 69.6073 97.4531C69.8937 96.8281 70.0239 96.1771 69.9979 95.5C69.9979 94.7969 69.8677 94.1458 69.6073 93.5469C69.3468 92.9479 68.9953 92.4271 68.5526 91.9844C68.1099 91.5417 67.5761 91.1771 66.9511 90.8906C66.3261 90.6042 65.6751 90.474 64.998 90.5C64.2949 90.5 63.6439 90.6302 63.045 90.8906C62.446 91.151 61.9252 91.5026 61.4825 91.9453C61.0398 92.388 60.6752 92.9219 60.3888 93.5469C60.1023 94.1719 59.9721 94.8229 59.9982 95.5Z" fill="white"/>
<path d="M120.68 104.08L110.04 129H104.36L115.08 104.72H101.4V99.92H120.68V104.08ZM127.154 129.28C126.141 129.28 125.301 128.973 124.634 128.36C123.994 127.72 123.674 126.933 123.674 126C123.674 125.067 123.994 124.293 124.634 123.68C125.301 123.04 126.141 122.72 127.154 122.72C128.141 122.72 128.954 123.04 129.594 123.68C130.234 124.293 130.554 125.067 130.554 126C130.554 126.933 130.234 127.72 129.594 128.36C128.954 128.973 128.141 129.28 127.154 129.28ZM139.305 113.56C136.638 112.173 135.305 110.027 135.305 107.12C135.305 105.68 135.665 104.373 136.385 103.2C137.131 102 138.238 101.053 139.705 100.36C141.198 99.64 143.011 99.28 145.145 99.28C147.278 99.28 149.078 99.64 150.545 100.36C152.038 101.053 153.145 102 153.865 103.2C154.611 104.373 154.985 105.68 154.985 107.12C154.985 108.587 154.625 109.88 153.905 111C153.185 112.093 152.225 112.947 151.025 113.56C152.491 114.2 153.638 115.133 154.465 116.36C155.291 117.587 155.705 119.04 155.705 120.72C155.705 122.533 155.238 124.12 154.305 125.48C153.398 126.813 152.145 127.84 150.545 128.56C148.945 129.28 147.145 129.64 145.145 129.64C143.145 129.64 141.345 129.28 139.745 128.56C138.171 127.84 136.918 126.813 135.985 125.48C135.078 124.12 134.625 122.533 134.625 120.72C134.625 119.04 135.038 117.587 135.865 116.36C136.691 115.107 137.838 114.173 139.305 113.56ZM149.545 107.92C149.545 106.613 149.145 105.6 148.345 104.88C147.571 104.16 146.505 103.8 145.145 103.8C143.811 103.8 142.745 104.16 141.945 104.88C141.171 105.6 140.785 106.627 140.785 107.96C140.785 109.16 141.185 110.12 141.985 110.84C142.811 111.56 143.865 111.92 145.145 111.92C146.425 111.92 147.478 111.56 148.305 110.84C149.131 110.093 149.545 109.12 149.545 107.92ZM145.145 116C143.625 116 142.385 116.387 141.425 117.16C140.491 117.933 140.025 119.04 140.025 120.48C140.025 121.813 140.478 122.907 141.385 123.76C142.318 124.587 143.571 125 145.145 125C146.718 125 147.958 124.573 148.865 123.72C149.771 122.867 150.225 121.787 150.225 120.48C150.225 119.067 149.758 117.973 148.825 117.2C147.891 116.4 146.665 116 145.145 116ZM175.248 107.12C174.981 106 174.514 105.16 173.848 104.6C173.208 104.04 172.274 103.76 171.048 103.76C169.208 103.76 167.848 104.507 166.968 106C166.114 107.467 165.674 109.867 165.648 113.2C166.288 112.133 167.221 111.307 168.448 110.72C169.674 110.107 171.008 109.8 172.448 109.8C174.181 109.8 175.714 110.173 177.048 110.92C178.381 111.667 179.421 112.76 180.168 114.2C180.914 115.613 181.288 117.32 181.288 119.32C181.288 121.213 180.901 122.907 180.128 124.4C179.381 125.867 178.274 127.013 176.808 127.84C175.341 128.667 173.594 129.08 171.568 129.08C168.794 129.08 166.608 128.467 165.008 127.24C163.434 126.013 162.328 124.307 161.688 122.12C161.074 119.907 160.768 117.187 160.768 113.96C160.768 109.08 161.608 105.4 163.288 102.92C164.968 100.413 167.621 99.16 171.248 99.16C174.048 99.16 176.221 99.92 177.768 101.44C179.314 102.96 180.208 104.853 180.448 107.12H175.248ZM171.168 114.4C169.754 114.4 168.568 114.813 167.608 115.64C166.648 116.467 166.168 117.667 166.168 119.24C166.168 120.813 166.608 122.053 167.488 122.96C168.394 123.867 169.661 124.32 171.288 124.32C172.728 124.32 173.861 123.88 174.688 123C175.541 122.12 175.968 120.933 175.968 119.44C175.968 117.893 175.554 116.667 174.728 115.76C173.928 114.853 172.741 114.4 171.168 114.4ZM190.594 113.56C187.927 112.173 186.594 110.027 186.594 107.12C186.594 105.68 186.954 104.373 187.674 103.2C188.42 102 189.527 101.053 190.994 100.36C192.487 99.64 194.3 99.28 196.434 99.28C198.567 99.28 200.367 99.64 201.834 100.36C203.327 101.053 204.434 102 205.154 103.2C205.9 104.373 206.274 105.68 206.274 107.12C206.274 108.587 205.914 109.88 205.194 111C204.474 112.093 203.514 112.947 202.314 113.56C203.78 114.2 204.927 115.133 205.754 116.36C206.58 117.587 206.994 119.04 206.994 120.72C206.994 122.533 206.527 124.12 205.594 125.48C204.687 126.813 203.434 127.84 201.834 128.56C200.234 129.28 198.434 129.64 196.434 129.64C194.434 129.64 192.634 129.28 191.034 128.56C189.46 127.84 188.207 126.813 187.274 125.48C186.367 124.12 185.914 122.533 185.914 120.72C185.914 119.04 186.327 117.587 187.154 116.36C187.98 115.107 189.127 114.173 190.594 113.56ZM200.834 107.92C200.834 106.613 200.434 105.6 199.634 104.88C198.86 104.16 197.794 103.8 196.434 103.8C195.1 103.8 194.034 104.16 193.234 104.88C192.46 105.6 192.074 106.627 192.074 107.96C192.074 109.16 192.474 110.12 193.274 110.84C194.1 111.56 195.154 111.92 196.434 111.92C197.714 111.92 198.767 111.56 199.594 110.84C200.42 110.093 200.834 109.12 200.834 107.92ZM196.434 116C194.914 116 193.674 116.387 192.714 117.16C191.78 117.933 191.314 119.04 191.314 120.48C191.314 121.813 191.767 122.907 192.674 123.76C193.607 124.587 194.86 125 196.434 125C198.007 125 199.247 124.573 200.154 123.72C201.06 122.867 201.514 121.787 201.514 120.48C201.514 119.067 201.047 117.973 200.114 117.2C199.18 116.4 197.954 116 196.434 116Z" fill="white"/>
<path d="M106.848 138.848V147.088C106.848 148.005 106.565 148.741 106 149.296C105.435 149.84 104.688 150.112 103.76 150.112C102.821 150.112 102.069 149.835 101.504 149.28C100.939 148.715 100.656 147.947 100.656 146.976H102.112C102.123 147.52 102.261 147.963 102.528 148.304C102.805 148.645 103.216 148.816 103.76 148.816C104.304 148.816 104.709 148.656 104.976 148.336C105.243 148.005 105.376 147.589 105.376 147.088V138.848H106.848ZM110.468 139.808C110.191 139.808 109.956 139.712 109.764 139.52C109.572 139.328 109.476 139.093 109.476 138.816C109.476 138.539 109.572 138.304 109.764 138.112C109.956 137.92 110.191 137.824 110.468 137.824C110.735 137.824 110.959 137.92 111.14 138.112C111.332 138.304 111.428 138.539 111.428 138.816C111.428 139.093 111.332 139.328 111.14 139.52C110.959 139.712 110.735 139.808 110.468 139.808ZM111.172 141.232V150H109.716V141.232H111.172ZM125.334 141.232L122.598 150H121.094L118.982 143.04L116.87 150H115.366L112.614 141.232H114.102L116.118 148.592L118.294 141.232H119.782L121.91 148.608L123.894 141.232H125.334ZM126.235 145.584C126.235 144.688 126.416 143.904 126.779 143.232C127.142 142.549 127.638 142.021 128.267 141.648C128.907 141.275 129.616 141.088 130.395 141.088C131.163 141.088 131.83 141.253 132.395 141.584C132.96 141.915 133.382 142.331 133.659 142.832V141.232H135.131V150H133.659V148.368C133.371 148.88 132.939 149.307 132.363 149.648C131.798 149.979 131.136 150.144 130.379 150.144C129.6 150.144 128.896 149.952 128.267 149.568C127.638 149.184 127.142 148.645 126.779 147.952C126.416 147.259 126.235 146.469 126.235 145.584ZM133.659 145.6C133.659 144.939 133.526 144.363 133.259 143.872C132.992 143.381 132.63 143.008 132.171 142.752C131.723 142.485 131.227 142.352 130.683 142.352C130.139 142.352 129.643 142.48 129.195 142.736C128.747 142.992 128.39 143.365 128.123 143.856C127.856 144.347 127.723 144.923 127.723 145.584C127.723 146.256 127.856 146.843 128.123 147.344C128.39 147.835 128.747 148.213 129.195 148.48C129.643 148.736 130.139 148.864 130.683 148.864C131.227 148.864 131.723 148.736 132.171 148.48C132.63 148.213 132.992 147.835 133.259 147.344C133.526 146.843 133.659 146.261 133.659 145.6Z" fill="white"/>
<path d="M347 112.75C346.005 112.75 345.052 113.145 344.348 113.848C343.645 114.552 343.25 115.505 343.25 116.5C343.25 117.495 343.645 118.448 344.348 119.152C345.052 119.855 346.005 120.25 347 120.25C347.492 120.25 347.98 120.153 348.435 119.965C348.89 119.776 349.303 119.5 349.652 119.152C350 118.803 350.276 118.39 350.465 117.935C350.653 117.48 350.75 116.992 350.75 116.5C350.75 116.008 350.653 115.52 350.465 115.065C350.276 114.61 350 114.197 349.652 113.848C349.303 113.5 348.89 113.224 348.435 113.035C347.98 112.847 347.492 112.75 347 112.75ZM365 112.75C364.005 112.75 363.052 113.145 362.348 113.848C361.645 114.552 361.25 115.505 361.25 116.5C361.25 117.495 361.645 118.448 362.348 119.152C363.052 119.855 364.005 120.25 365 120.25C365.995 120.25 366.948 119.855 367.652 119.152C368.355 118.448 368.75 117.495 368.75 116.5C368.75 115.505 368.355 114.552 367.652 113.848C366.948 113.145 365.995 112.75 365 112.75ZM356 83.5C352.06 83.5 348.159 84.276 344.519 85.7836C340.88 87.2913 337.573 89.501 334.787 92.2868C329.161 97.9129 326 105.544 326 113.5C326 121.456 329.161 129.087 334.787 134.713C337.573 137.499 340.88 139.709 344.519 141.216C348.159 142.724 352.06 143.5 356 143.5C363.956 143.5 371.587 140.339 377.213 134.713C382.839 129.087 386 121.456 386 113.5C386 109.56 385.224 105.659 383.716 102.019C382.209 98.3797 379.999 95.0726 377.213 92.2868C374.427 89.501 371.12 87.2913 367.481 85.7836C363.841 84.276 359.94 83.5 356 83.5ZM356 137.5C342.77 137.5 332 126.73 332 113.5C332 112.63 332 111.76 332.15 110.92C339.23 107.77 344.84 101.98 347.78 94.81C351.209 99.6784 356.012 103.413 361.576 105.534C367.14 107.656 373.21 108.069 379.01 106.72C379.64 108.85 380 111.13 380 113.5C380 126.73 369.23 137.5 356 137.5Z" fill="white"/>
<path d="M407.88 119.32V114.92L420.96 96.2H427.48V114.44H431V119.32H427.48V125H421.88V119.32H407.88ZM422.24 102.2L414.04 114.44H422.24V102.2ZM437.685 125.28C436.672 125.28 435.832 124.973 435.165 124.36C434.525 123.72 434.205 122.933 434.205 122C434.205 121.067 434.525 120.293 435.165 119.68C435.832 119.04 436.672 118.72 437.685 118.72C438.672 118.72 439.485 119.04 440.125 119.68C440.765 120.293 441.085 121.067 441.085 122C441.085 122.933 440.765 123.72 440.125 124.36C439.485 124.973 438.672 125.28 437.685 125.28ZM444.956 110.04C444.956 105.427 445.783 101.813 447.436 99.2C449.116 96.5867 451.889 95.28 455.756 95.28C459.623 95.28 462.383 96.5867 464.036 99.2C465.716 101.813 466.556 105.427 466.556 110.04C466.556 114.68 465.716 118.32 464.036 120.96C462.383 123.6 459.623 124.92 455.756 124.92C451.889 124.92 449.116 123.6 447.436 120.96C445.783 118.32 444.956 114.68 444.956 110.04ZM461.036 110.04C461.036 108.067 460.903 106.413 460.636 105.08C460.396 103.72 459.889 102.613 459.116 101.76C458.369 100.907 457.249 100.48 455.756 100.48C454.263 100.48 453.129 100.907 452.356 101.76C451.609 102.613 451.103 103.72 450.836 105.08C450.596 106.413 450.476 108.067 450.476 110.04C450.476 112.067 450.596 113.773 450.836 115.16C451.076 116.52 451.583 117.627 452.356 118.48C453.129 119.307 454.263 119.72 455.756 119.72C457.249 119.72 458.383 119.307 459.156 118.48C459.929 117.627 460.436 116.52 460.676 115.16C460.916 113.773 461.036 112.067 461.036 110.04ZM490.415 100.68H477.455V107.52C478.015 106.827 478.815 106.267 479.855 105.84C480.895 105.387 482.002 105.16 483.175 105.16C485.309 105.16 487.055 105.627 488.415 106.56C489.775 107.493 490.762 108.693 491.375 110.16C491.989 111.6 492.295 113.147 492.295 114.8C492.295 117.867 491.415 120.333 489.655 122.2C487.922 124.067 485.442 125 482.215 125C479.175 125 476.749 124.24 474.935 122.72C473.122 121.2 472.095 119.213 471.855 116.76H477.295C477.535 117.827 478.069 118.68 478.895 119.32C479.749 119.96 480.829 120.28 482.135 120.28C483.709 120.28 484.895 119.787 485.695 118.8C486.495 117.813 486.895 116.507 486.895 114.88C486.895 113.227 486.482 111.973 485.655 111.12C484.855 110.24 483.669 109.8 482.095 109.8C480.975 109.8 480.042 110.08 479.295 110.64C478.549 111.2 478.015 111.947 477.695 112.88H472.335V95.76H490.415V100.68ZM496.318 119.32V114.92L509.398 96.2H515.918V114.44H519.438V119.32H515.918V125H510.318V119.32H496.318ZM510.678 102.2L502.478 114.44H510.678V102.2Z" fill="white"/>
<path d="M408.688 144.816H412.592V146H407.232V134.848H408.688V144.816ZM413.594 141.584C413.594 140.688 413.776 139.904 414.138 139.232C414.501 138.549 414.997 138.021 415.626 137.648C416.266 137.275 416.976 137.088 417.754 137.088C418.522 137.088 419.189 137.253 419.754 137.584C420.32 137.915 420.741 138.331 421.018 138.832V137.232H422.49V146H421.018V144.368C420.73 144.88 420.298 145.307 419.722 145.648C419.157 145.979 418.496 146.144 417.738 146.144C416.96 146.144 416.256 145.952 415.626 145.568C414.997 145.184 414.501 144.645 414.138 143.952C413.776 143.259 413.594 142.469 413.594 141.584ZM421.018 141.6C421.018 140.939 420.885 140.363 420.618 139.872C420.352 139.381 419.989 139.008 419.53 138.752C419.082 138.485 418.586 138.352 418.042 138.352C417.498 138.352 417.002 138.48 416.554 138.736C416.106 138.992 415.749 139.365 415.482 139.856C415.216 140.347 415.082 140.923 415.082 141.584C415.082 142.256 415.216 142.843 415.482 143.344C415.749 143.835 416.106 144.213 416.554 144.48C417.002 144.736 417.498 144.864 418.042 144.864C418.586 144.864 419.082 144.736 419.53 144.48C419.989 144.213 420.352 143.835 420.618 143.344C420.885 142.843 421.018 142.261 421.018 141.6ZM429.847 146L426.407 142.128V146H424.951V134.16H426.407V141.12L429.783 137.232H431.815L427.687 141.6L431.831 146H429.847ZM433.937 135.808C433.66 135.808 433.425 135.712 433.233 135.52C433.041 135.328 432.945 135.093 432.945 134.816C432.945 134.539 433.041 134.304 433.233 134.112C433.425 133.92 433.66 133.824 433.937 133.824C434.204 133.824 434.428 133.92 434.609 134.112C434.801 134.304 434.897 134.539 434.897 134.816C434.897 135.093 434.801 135.328 434.609 135.52C434.428 135.712 434.204 135.808 433.937 135.808ZM434.641 137.232V146H433.185V137.232H434.641ZM443.203 139.52V140.752H436.819V139.52H443.203ZM447.391 134.16V146H445.935V134.16H447.391ZM449.329 141.584C449.329 140.688 449.51 139.904 449.873 139.232C450.235 138.549 450.731 138.021 451.361 137.648C452.001 137.275 452.71 137.088 453.489 137.088C454.257 137.088 454.923 137.253 455.489 137.584C456.054 137.915 456.475 138.331 456.753 138.832V137.232H458.225V146H456.753V144.368C456.465 144.88 456.033 145.307 455.457 145.648C454.891 145.979 454.23 146.144 453.473 146.144C452.694 146.144 451.99 145.952 451.361 145.568C450.731 145.184 450.235 144.645 449.873 143.952C449.51 143.259 449.329 142.469 449.329 141.584ZM456.753 141.6C456.753 140.939 456.619 140.363 456.353 139.872C456.086 139.381 455.723 139.008 455.265 138.752C454.817 138.485 454.321 138.352 453.777 138.352C453.233 138.352 452.737 138.48 452.289 138.736C451.841 138.992 451.483 139.365 451.217 139.856C450.95 140.347 450.817 140.923 450.817 141.584C450.817 142.256 450.95 142.843 451.217 143.344C451.483 143.835 451.841 144.213 452.289 144.48C452.737 144.736 453.233 144.864 453.777 144.864C454.321 144.864 454.817 144.736 455.265 144.48C455.723 144.213 456.086 143.835 456.353 143.344C456.619 142.843 456.753 142.261 456.753 141.6ZM465.581 146L462.141 142.128V146H460.685V134.16H462.141V141.12L465.517 137.232H467.549L463.421 141.6L467.565 146H465.581ZM469.672 135.808C469.394 135.808 469.16 135.712 468.968 135.52C468.776 135.328 468.68 135.093 468.68 134.816C468.68 134.539 468.776 134.304 468.968 134.112C469.16 133.92 469.394 133.824 469.672 133.824C469.938 133.824 470.162 133.92 470.344 134.112C470.536 134.304 470.632 134.539 470.632 134.816C470.632 135.093 470.536 135.328 470.344 135.52C470.162 135.712 469.938 135.808 469.672 135.808ZM470.376 137.232V146H468.92V137.232H470.376Z" fill="white"/>
<path d="M661.75 116C661.75 116.492 661.653 116.98 661.465 117.435C661.276 117.89 661 118.303 660.652 118.652C660.303 119 659.89 119.276 659.435 119.465C658.98 119.653 658.492 119.75 658 119.75C657.005 119.75 656.052 119.355 655.348 118.652C654.645 117.948 654.25 116.995 654.25 116C654.25 115.005 654.645 114.052 655.348 113.348C656.052 112.645 657.005 112.25 658 112.25C658.492 112.25 658.98 112.347 659.435 112.535C659.89 112.724 660.303 113 660.652 113.348C661 113.697 661.276 114.11 661.465 114.565C661.653 115.02 661.75 115.508 661.75 116ZM676 112.25C675.005 112.25 674.052 112.645 673.348 113.348C672.645 114.052 672.25 115.005 672.25 116C672.25 116.995 672.645 117.948 673.348 118.652C674.052 119.355 675.005 119.75 676 119.75C676.995 119.75 677.948 119.355 678.652 118.652C679.355 117.948 679.75 116.995 679.75 116C679.75 115.005 679.355 114.052 678.652 113.348C677.948 112.645 676.995 112.25 676 112.25ZM697 113C697 120.956 693.839 128.587 688.213 134.213C682.587 139.839 674.956 143 667 143C663.06 143 659.159 142.224 655.519 140.716C651.88 139.209 648.573 136.999 645.787 134.213C640.161 128.587 637 120.956 637 113C637 105.044 640.161 97.4129 645.787 91.7868C651.413 86.1607 659.044 83 667 83C670.94 83 674.841 83.776 678.481 85.2836C682.12 86.7913 685.427 89.001 688.213 91.7868C690.999 94.5726 693.209 97.8797 694.716 101.519C696.224 105.159 697 109.06 697 113ZM662.98 89.36C667.18 96.32 674.8 101 683.5 101C684.88 101 686.23 100.85 687.52 100.64C683.32 93.68 675.7 89 667 89C665.62 89 664.27 89.15 662.98 89.36ZM644.26 105.41C649.436 102.474 653.346 97.7311 655.24 92.09C650.064 95.0256 646.154 99.7689 644.26 105.41ZM691 113C691 110.66 690.64 108.41 690.01 106.28C687.91 106.73 685.75 107 683.5 107C679.041 107.001 674.637 106.008 670.61 104.093C666.583 102.178 663.034 99.3894 660.22 95.93C658.644 99.7373 656.302 103.18 653.34 106.044C650.378 108.909 646.858 111.133 643 112.58V113C643 126.23 653.77 137 667 137C680.23 137 691 126.23 691 113Z" fill="white"/>
<path d="M719.2 103.52C719.333 100.853 720.267 98.8 722 97.36C723.76 95.8933 726.067 95.16 728.92 95.16C730.867 95.16 732.533 95.5067 733.92 96.2C735.307 96.8667 736.347 97.7867 737.04 98.96C737.76 100.107 738.12 101.413 738.12 102.88C738.12 104.56 737.68 105.987 736.8 107.16C735.947 108.307 734.92 109.08 733.72 109.48V109.64C735.267 110.12 736.467 110.973 737.32 112.2C738.2 113.427 738.64 115 738.64 116.92C738.64 118.52 738.267 119.947 737.52 121.2C736.8 122.453 735.72 123.44 734.28 124.16C732.867 124.853 731.16 125.2 729.16 125.2C726.147 125.2 723.693 124.44 721.8 122.92C719.907 121.4 718.907 119.16 718.8 116.2H724.24C724.293 117.507 724.733 118.56 725.56 119.36C726.413 120.133 727.573 120.52 729.04 120.52C730.4 120.52 731.44 120.147 732.16 119.4C732.907 118.627 733.28 117.64 733.28 116.44C733.28 114.84 732.773 113.693 731.76 113C730.747 112.307 729.173 111.96 727.04 111.96H725.88V107.36H727.04C730.827 107.36 732.72 106.093 732.72 103.56C732.72 102.413 732.373 101.52 731.68 100.88C731.013 100.24 730.04 99.92 728.76 99.92C727.507 99.92 726.533 100.267 725.84 100.96C725.173 101.627 724.787 102.48 724.68 103.52H719.2ZM746.185 125.28C745.172 125.28 744.332 124.973 743.665 124.36C743.025 123.72 742.705 122.933 742.705 122C742.705 121.067 743.025 120.293 743.665 119.68C744.332 119.04 745.172 118.72 746.185 118.72C747.172 118.72 747.985 119.04 748.625 119.68C749.265 120.293 749.585 121.067 749.585 122C749.585 122.933 749.265 123.72 748.625 124.36C747.985 124.973 747.172 125.28 746.185 125.28ZM758.336 109.56C755.669 108.173 754.336 106.027 754.336 103.12C754.336 101.68 754.696 100.373 755.416 99.2C756.163 98 757.269 97.0533 758.736 96.36C760.229 95.64 762.043 95.28 764.176 95.28C766.309 95.28 768.109 95.64 769.576 96.36C771.069 97.0533 772.176 98 772.896 99.2C773.643 100.373 774.016 101.68 774.016 103.12C774.016 104.587 773.656 105.88 772.936 107C772.216 108.093 771.256 108.947 770.056 109.56C771.523 110.2 772.669 111.133 773.496 112.36C774.323 113.587 774.736 115.04 774.736 116.72C774.736 118.533 774.269 120.12 773.336 121.48C772.429 122.813 771.176 123.84 769.576 124.56C767.976 125.28 766.176 125.64 764.176 125.64C762.176 125.64 760.376 125.28 758.776 124.56C757.203 123.84 755.949 122.813 755.016 121.48C754.109 120.12 753.656 118.533 753.656 116.72C753.656 115.04 754.069 113.587 754.896 112.36C755.723 111.107 756.869 110.173 758.336 109.56ZM768.576 103.92C768.576 102.613 768.176 101.6 767.376 100.88C766.603 100.16 765.536 99.8 764.176 99.8C762.843 99.8 761.776 100.16 760.976 100.88C760.203 101.6 759.816 102.627 759.816 103.96C759.816 105.16 760.216 106.12 761.016 106.84C761.843 107.56 762.896 107.92 764.176 107.92C765.456 107.92 766.509 107.56 767.336 106.84C768.163 106.093 768.576 105.12 768.576 103.92ZM764.176 112C762.656 112 761.416 112.387 760.456 113.16C759.523 113.933 759.056 115.04 759.056 116.48C759.056 117.813 759.509 118.907 760.416 119.76C761.349 120.587 762.603 121 764.176 121C765.749 121 766.989 120.573 767.896 119.72C768.803 118.867 769.256 117.787 769.256 116.48C769.256 115.067 768.789 113.973 767.856 113.2C766.923 112.4 765.696 112 764.176 112ZM778.479 101V95.84H788.119V125H782.359V101H778.479ZM793.411 119.32V114.92L806.491 96.2H813.011V114.44H816.531V119.32H813.011V125H807.411V119.32H793.411ZM807.771 102.2L799.571 114.44H807.771V102.2Z" fill="white"/>
<path d="M725.688 137.112C725.688 138.04 725.368 138.813 724.728 139.432C724.099 140.04 723.133 140.344 721.832 140.344H719.688V145H718.232V133.848H721.832C723.091 133.848 724.045 134.152 724.696 134.76C725.357 135.368 725.688 136.152 725.688 137.112ZM721.832 139.144C722.643 139.144 723.24 138.968 723.624 138.616C724.008 138.264 724.2 137.763 724.2 137.112C724.2 135.736 723.411 135.048 721.832 135.048H719.688V139.144H721.832ZM735.498 140.28C735.498 140.557 735.482 140.851 735.45 141.16H728.442C728.495 142.024 728.788 142.701 729.322 143.192C729.866 143.672 730.522 143.912 731.29 143.912C731.919 143.912 732.442 143.768 732.858 143.48C733.284 143.181 733.583 142.787 733.754 142.296H735.322C735.087 143.139 734.618 143.827 733.914 144.36C733.21 144.883 732.335 145.144 731.29 145.144C730.458 145.144 729.711 144.957 729.05 144.584C728.399 144.211 727.887 143.683 727.514 143C727.14 142.307 726.954 141.507 726.954 140.6C726.954 139.693 727.135 138.899 727.498 138.216C727.86 137.533 728.367 137.011 729.018 136.648C729.679 136.275 730.436 136.088 731.29 136.088C732.122 136.088 732.858 136.269 733.498 136.632C734.138 136.995 734.628 137.496 734.97 138.136C735.322 138.765 735.498 139.48 735.498 140.28ZM733.994 139.976C733.994 139.421 733.871 138.947 733.626 138.552C733.38 138.147 733.044 137.843 732.618 137.64C732.202 137.427 731.738 137.32 731.226 137.32C730.49 137.32 729.86 137.555 729.338 138.024C728.826 138.493 728.532 139.144 728.458 139.976H733.994ZM738.876 137.656C739.132 137.155 739.494 136.765 739.964 136.488C740.444 136.211 741.025 136.072 741.708 136.072V137.576H741.324C739.692 137.576 738.876 138.461 738.876 140.232V145H737.42V136.232H738.876V137.656ZM751.388 140.28C751.388 140.557 751.372 140.851 751.34 141.16H744.332C744.386 142.024 744.679 142.701 745.212 143.192C745.756 143.672 746.412 143.912 747.18 143.912C747.81 143.912 748.332 143.768 748.748 143.48C749.175 143.181 749.474 142.787 749.644 142.296H751.212C750.978 143.139 750.508 143.827 749.804 144.36C749.1 144.883 748.226 145.144 747.18 145.144C746.348 145.144 745.602 144.957 744.94 144.584C744.29 144.211 743.778 143.683 743.404 143C743.031 142.307 742.844 141.507 742.844 140.6C742.844 139.693 743.026 138.899 743.388 138.216C743.751 137.533 744.258 137.011 744.908 136.648C745.57 136.275 746.327 136.088 747.18 136.088C748.012 136.088 748.748 136.269 749.388 136.632C750.028 136.995 750.519 137.496 750.86 138.136C751.212 138.765 751.388 139.48 751.388 140.28ZM749.884 139.976C749.884 139.421 749.762 138.947 749.516 138.552C749.271 138.147 748.935 137.843 748.508 137.64C748.092 137.427 747.628 137.32 747.116 137.32C746.38 137.32 745.751 137.555 745.228 138.024C744.716 138.493 744.423 139.144 744.348 139.976H749.884ZM763.854 136.072C764.537 136.072 765.145 136.216 765.678 136.504C766.211 136.781 766.633 137.203 766.942 137.768C767.251 138.333 767.406 139.021 767.406 139.832V145H765.966V140.04C765.966 139.165 765.747 138.499 765.31 138.04C764.883 137.571 764.302 137.336 763.566 137.336C762.809 137.336 762.206 137.581 761.758 138.072C761.31 138.552 761.086 139.251 761.086 140.168V145H759.646V140.04C759.646 139.165 759.427 138.499 758.99 138.04C758.563 137.571 757.982 137.336 757.246 137.336C756.489 137.336 755.886 137.581 755.438 138.072C754.99 138.552 754.766 139.251 754.766 140.168V145H753.31V136.232H754.766V137.496C755.054 137.037 755.438 136.685 755.918 136.44C756.409 136.195 756.947 136.072 757.534 136.072C758.27 136.072 758.921 136.237 759.486 136.568C760.051 136.899 760.473 137.384 760.75 138.024C760.995 137.405 761.401 136.925 761.966 136.584C762.531 136.243 763.161 136.072 763.854 136.072ZM771.251 137.848C771.539 137.347 771.965 136.931 772.531 136.6C773.107 136.259 773.773 136.088 774.531 136.088C775.309 136.088 776.013 136.275 776.642 136.648C777.282 137.021 777.784 137.549 778.147 138.232C778.509 138.904 778.691 139.688 778.691 140.584C778.691 141.469 778.509 142.259 778.147 142.952C777.784 143.645 777.282 144.184 776.642 144.568C776.013 144.952 775.309 145.144 774.531 145.144C773.784 145.144 773.123 144.979 772.547 144.648C771.981 144.307 771.549 143.885 771.251 143.384V149.16H769.795V136.232H771.251V137.848ZM777.203 140.584C777.203 139.923 777.069 139.347 776.803 138.856C776.536 138.365 776.173 137.992 775.715 137.736C775.267 137.48 774.771 137.352 774.227 137.352C773.693 137.352 773.197 137.485 772.739 137.752C772.291 138.008 771.928 138.387 771.651 138.888C771.384 139.379 771.251 139.949 771.251 140.6C771.251 141.261 771.384 141.843 771.651 142.344C771.928 142.835 772.291 143.213 772.739 143.48C773.197 143.736 773.693 143.864 774.227 143.864C774.771 143.864 775.267 143.736 775.715 143.48C776.173 143.213 776.536 142.835 776.803 142.344C777.069 141.843 777.203 141.256 777.203 140.584ZM788.383 136.232V145H786.927V143.704C786.65 144.152 786.26 144.504 785.759 144.76C785.268 145.005 784.724 145.128 784.127 145.128C783.444 145.128 782.831 144.989 782.287 144.712C781.743 144.424 781.311 143.997 780.991 143.432C780.682 142.867 780.527 142.179 780.527 141.368V136.232H781.967V141.176C781.967 142.04 782.186 142.707 782.623 143.176C783.06 143.635 783.658 143.864 784.415 143.864C785.194 143.864 785.807 143.624 786.255 143.144C786.703 142.664 786.927 141.965 786.927 141.048V136.232H788.383ZM790.297 140.584C790.297 139.688 790.479 138.904 790.841 138.232C791.204 137.549 791.7 137.021 792.329 136.648C792.969 136.275 793.679 136.088 794.457 136.088C795.225 136.088 795.892 136.253 796.457 136.584C797.023 136.915 797.444 137.331 797.721 137.832V136.232H799.193V145H797.721V143.368C797.433 143.88 797.001 144.307 796.425 144.648C795.86 144.979 795.199 145.144 794.441 145.144C793.663 145.144 792.959 144.952 792.329 144.568C791.7 144.184 791.204 143.645 790.841 142.952C790.479 142.259 790.297 141.469 790.297 140.584ZM797.721 140.6C797.721 139.939 797.588 139.363 797.321 138.872C797.055 138.381 796.692 138.008 796.233 137.752C795.785 137.485 795.289 137.352 794.745 137.352C794.201 137.352 793.705 137.48 793.257 137.736C792.809 137.992 792.452 138.365 792.185 138.856C791.919 139.347 791.785 139.923 791.785 140.584C791.785 141.256 791.919 141.843 792.185 142.344C792.452 142.835 792.809 143.213 793.257 143.48C793.705 143.736 794.201 143.864 794.745 143.864C795.289 143.864 795.785 143.736 796.233 143.48C796.692 143.213 797.055 142.835 797.321 142.344C797.588 141.843 797.721 141.261 797.721 140.6ZM805.926 136.072C806.993 136.072 807.857 136.397 808.518 137.048C809.179 137.688 809.51 138.616 809.51 139.832V145H808.07V140.04C808.07 139.165 807.851 138.499 807.414 138.04C806.977 137.571 806.379 137.336 805.622 137.336C804.854 137.336 804.241 137.576 803.782 138.056C803.334 138.536 803.11 139.235 803.11 140.152V145H801.654V136.232H803.11V137.48C803.398 137.032 803.787 136.685 804.278 136.44C804.779 136.195 805.329 136.072 805.926 136.072Z" fill="white"/>
</svg>
