<svg width="80" height="61" viewBox="0 0 80 61" fill="none" xmlns="http://www.w3.org/2000/svg">
<path d="M72.2634 17.375C73.4353 18.026 74.5029 18.8203 75.4664 19.7578C76.43 20.6953 77.2372 21.737 77.8882 22.8828C78.5393 24.0286 79.0601 25.2396 79.4507 26.5156C79.8413 27.7917 80.0236 29.1198 79.9976 30.5H74.9977C74.9977 29.1458 74.7373 27.8568 74.2165 26.6328C73.6957 25.4089 72.9795 24.3542 72.0681 23.4688C71.1567 22.5833 70.089 21.8672 68.8651 21.3203C67.6412 20.7734 66.3521 20.5 64.998 20.5C63.6179 20.5 62.3288 20.7604 61.1309 21.2812C59.9331 21.8021 58.8784 22.5182 57.967 23.4297C57.0556 24.3411 56.3394 25.4089 55.8186 26.6328C55.2978 27.8568 55.0244 29.1458 54.9983 30.5C54.9983 32.8698 54.4645 35.1224 53.3968 37.2578C52.3291 39.3932 50.8318 41.1641 48.9048 42.5703C50.5974 43.4297 52.1208 44.4844 53.4749 45.7344C54.8291 46.9844 56.0009 48.3906 56.9904 49.9531C57.98 51.5156 58.7222 53.1823 59.2169 54.9531C59.7117 56.724 59.9721 58.5729 59.9982 60.5H54.9983C54.9983 58.4427 54.6077 56.5026 53.8265 54.6797C53.0453 52.8568 51.9646 51.2682 50.5844 49.9141C49.2042 48.5599 47.6157 47.4922 45.8189 46.7109C44.0221 45.9297 42.082 45.526 39.9988 45.5C37.9416 45.5 36.0015 45.8906 34.1786 46.6719C32.3558 47.4531 30.7673 48.5339 29.4132 49.9141C28.059 51.2943 26.9914 52.8828 26.2101 54.6797C25.4289 56.4766 25.0253 58.4167 24.9992 60.5H19.9994C19.9994 58.599 20.2598 56.763 20.7806 54.9922C21.3014 53.2214 22.0436 51.5547 23.0071 49.9922C23.9706 48.4297 25.1294 47.0234 26.4836 45.7734C27.8377 44.5234 29.3741 43.4557 31.0928 42.5703C29.1918 41.1641 27.7075 39.3932 26.6398 37.2578C25.5721 35.1224 25.0253 32.8698 24.9992 30.5C24.9992 29.1458 24.7388 27.8568 24.218 26.6328C23.6972 25.4089 22.9811 24.3542 22.0696 23.4688C21.1582 22.5833 20.0905 21.8672 18.8666 21.3203C17.6427 20.7734 16.3537 20.5 14.9995 20.5C13.6194 20.5 12.3304 20.7604 11.1325 21.2812C9.93459 21.8021 8.87994 22.5182 7.96851 23.4297C7.05708 24.3411 6.34095 25.4089 5.82013 26.6328C5.29932 27.8568 5.02589 29.1458 4.99985 30.5H0C0 29.1458 0.182286 27.8307 0.546858 26.5547C0.911431 25.2786 1.41923 24.0677 2.07025 22.9219C2.72127 21.776 3.54156 20.7344 4.53111 19.7969C5.52066 18.8594 6.58834 18.0521 7.73414 17.375C6.87479 16.4635 6.21075 15.4089 5.74201 14.2109C5.27328 13.013 5.02589 11.776 4.99985 10.5C4.99985 9.14583 5.26026 7.85677 5.78107 6.63281C6.30189 5.40885 7.01801 4.35417 7.92945 3.46875C8.84088 2.58333 9.89553 1.86719 11.0934 1.32031C12.2913 0.773438 13.5933 0.5 14.9995 0.5C16.3537 0.5 17.6427 0.760417 18.8666 1.28125C20.0905 1.80208 21.1452 2.51823 22.0306 3.42969C22.916 4.34115 23.6321 5.40885 24.1789 6.63281C24.7258 7.85677 24.9992 9.14583 24.9992 10.5C24.9992 11.776 24.7649 13.013 24.2961 14.2109C23.8274 15.4089 23.1503 16.4635 22.2649 17.375C24.4003 18.5469 26.145 20.1615 27.4992 22.2188C28.9054 20.1354 30.7022 18.4948 32.8896 17.2969C35.0771 16.099 37.4468 15.5 39.9988 15.5C42.5247 15.5 44.8814 16.099 47.0689 17.2969C49.2563 18.4948 51.0661 20.1354 52.4984 22.2188C53.8525 20.1615 55.5973 18.5469 57.7326 17.375C56.8733 16.4635 56.2092 15.4089 55.7405 14.2109C55.2718 13.013 55.0244 11.776 54.9983 10.5C54.9983 9.14583 55.2587 7.85677 55.7795 6.63281C56.3004 5.40885 57.0165 4.35417 57.9279 3.46875C58.8394 2.58333 59.894 1.86719 61.0919 1.32031C62.2898 0.773438 63.5918 0.5 64.998 0.5C66.3521 0.5 67.6412 0.760417 68.8651 1.28125C70.089 1.80208 71.1437 2.51823 72.0291 3.42969C72.9144 4.34115 73.6306 5.40885 74.1774 6.63281C74.7243 7.85677 74.9977 9.14583 74.9977 10.5C74.9977 11.776 74.7633 13.013 74.2946 14.2109C73.8259 15.4089 73.1488 16.4635 72.2634 17.375ZM9.99969 10.5C9.99969 11.2031 10.1299 11.8542 10.3903 12.4531C10.6507 13.0521 11.0023 13.5729 11.445 14.0156C11.8877 14.4583 12.4215 14.8229 13.0465 15.1094C13.6715 15.3958 14.3225 15.526 14.9995 15.5C15.7026 15.5 16.3537 15.3698 16.9526 15.1094C17.5515 14.849 18.0724 14.4974 18.5151 14.0547C18.9578 13.612 19.3223 13.0781 19.6088 12.4531C19.8952 11.8281 20.0254 11.1771 19.9994 10.5C19.9994 9.79688 19.8692 9.14583 19.6088 8.54688C19.3484 7.94792 18.9968 7.42708 18.5541 6.98438C18.1114 6.54167 17.5776 6.17708 16.9526 5.89062C16.3276 5.60417 15.6766 5.47396 14.9995 5.5C14.2964 5.5 13.6454 5.63021 13.0465 5.89062C12.4475 6.15104 11.9267 6.5026 11.484 6.94531C11.0413 7.38802 10.6768 7.92188 10.3903 8.54688C10.1039 9.17188 9.97365 9.82292 9.99969 10.5ZM39.9988 40.5C41.3529 40.5 42.6419 40.2396 43.8658 39.7188C45.0898 39.1979 46.1444 38.4818 47.0298 37.5703C47.9152 36.6589 48.6313 35.6042 49.1782 34.4062C49.725 33.2083 49.9985 31.9062 49.9985 30.5C49.9985 29.1458 49.7381 27.8568 49.2172 26.6328C48.6964 25.4089 47.9803 24.3542 47.0689 23.4688C46.1574 22.5833 45.0898 21.8672 43.8658 21.3203C42.6419 20.7734 41.3529 20.5 39.9988 20.5C38.6186 20.5 37.3296 20.7604 36.1317 21.2812C34.9338 21.8021 33.8792 22.5182 32.9677 23.4297C32.0563 24.3411 31.3402 25.4089 30.8194 26.6328C30.2986 27.8568 30.0251 29.1458 29.9991 30.5C29.9991 31.8802 30.2595 33.1693 30.7803 34.3672C31.3011 35.5651 32.0173 36.6198 32.9287 37.5312C33.8401 38.4427 34.8948 39.1589 36.0926 39.6797C37.2905 40.2005 38.5926 40.474 39.9988 40.5ZM59.9982 10.5C59.9982 11.2031 60.1284 11.8542 60.3888 12.4531C60.6492 13.0521 61.0007 13.5729 61.4434 14.0156C61.8861 14.4583 62.42 14.8229 63.045 15.1094C63.6699 15.3958 64.321 15.526 64.998 15.5C65.7011 15.5 66.3521 15.3698 66.9511 15.1094C67.55 14.849 68.0708 14.4974 68.5135 14.0547C68.9562 13.612 69.3208 13.0781 69.6073 12.4531C69.8937 11.8281 70.0239 11.1771 69.9979 10.5C69.9979 9.79688 69.8677 9.14583 69.6073 8.54688C69.3468 7.94792 68.9953 7.42708 68.5526 6.98438C68.1099 6.54167 67.5761 6.17708 66.9511 5.89062C66.3261 5.60417 65.6751 5.47396 64.998 5.5C64.2949 5.5 63.6439 5.63021 63.045 5.89062C62.446 6.15104 61.9252 6.5026 61.4825 6.94531C61.0398 7.38802 60.6752 7.92188 60.3888 8.54688C60.1023 9.17188 59.9721 9.82292 59.9982 10.5Z" fill="white"/>
</svg>
