<svg width="1366" height="66" viewBox="0 0 1366 66" fill="none" xmlns="http://www.w3.org/2000/svg">
<rect x="22.0429" y="22.9785" width="22.0429" height="22.0429" rx="6.19407" fill="#14726F"/>
<path d="M44.0869 45.0225H59.9358C63.3567 45.0225 66.1298 47.7956 66.1298 51.2165V60.8713C66.1298 64.2922 63.3567 67.0654 59.9358 67.0654H50.281C46.8601 67.0654 44.0869 64.2922 44.0869 60.8713V45.0225Z" fill="#14726F"/>
<path d="M22.0429 45.0225H6.19406C2.77317 45.0225 -3.8147e-06 47.7956 -3.8147e-06 51.2165V60.8713C-3.8147e-06 64.2922 2.77317 67.0654 6.19406 67.0654H15.8489C19.2698 67.0654 22.0429 64.2922 22.0429 60.8713V45.0225Z" fill="#14726F"/>
<path d="M44.0869 22.9785H59.9358C63.3567 22.9785 66.1298 20.2053 66.1298 16.7844V7.12963C66.1298 3.70874 63.3567 0.935566 59.9358 0.935566H50.281C46.8601 0.935566 44.0869 3.70874 44.0869 7.12963V22.9785Z" fill="#14726F"/>
<path d="M22.0429 22.9785H6.19406C2.77317 22.9785 -3.8147e-06 20.2053 -3.8147e-06 16.7844V7.12963C-3.8147e-06 3.70874 2.77317 0.935566 6.19406 0.935566H15.8489C19.2698 0.935566 22.0429 3.70874 22.0429 7.12963V22.9785Z" fill="#14726F"/>
<rect x="98.5059" y="22.9785" width="22.0429" height="22.0429" rx="6.19407" fill="#14726F"/>
<path d="M120.55 45.0225H136.399C139.82 45.0225 142.593 47.7956 142.593 51.2165V60.8713C142.593 64.2922 139.82 67.0654 136.399 67.0654H126.744C123.323 67.0654 120.55 64.2922 120.55 60.8713V45.0225Z" fill="#14726F"/>
<path d="M98.5059 45.0225H82.657C79.2361 45.0225 76.463 47.7956 76.463 51.2165V60.8713C76.463 64.2922 79.2361 67.0654 82.657 67.0654H92.3118C95.7327 67.0654 98.5059 64.2922 98.5059 60.8713V45.0225Z" fill="#14726F"/>
<path d="M120.55 22.9785H136.399C139.82 22.9785 142.593 20.2053 142.593 16.7844V7.12963C142.593 3.70874 139.82 0.935566 136.399 0.935566H126.744C123.323 0.935566 120.55 3.70874 120.55 7.12963V22.9785Z" fill="#14726F"/>
<path d="M98.5059 22.9785H82.657C79.2361 22.9785 76.463 20.2053 76.463 16.7844V7.12963C76.463 3.70874 79.2361 0.935566 82.657 0.935566H92.3118C95.7327 0.935566 98.5059 3.70874 98.5059 7.12963V22.9785Z" fill="#14726F"/>
<rect x="174.969" y="22.9785" width="22.0429" height="22.0429" rx="6.19407" fill="#14726F"/>
<path d="M197.013 45.0225H212.862C216.283 45.0225 219.056 47.7956 219.056 51.2165V60.8713C219.056 64.2922 216.283 67.0654 212.862 67.0654H203.207C199.786 67.0654 197.013 64.2922 197.013 60.8713V45.0225Z" fill="#14726F"/>
<path d="M174.969 45.0225H159.12C155.699 45.0225 152.926 47.7956 152.926 51.2165V60.8713C152.926 64.2922 155.699 67.0654 159.12 67.0654H168.775C172.196 67.0654 174.969 64.2922 174.969 60.8713V45.0225Z" fill="#14726F"/>
<path d="M197.013 22.9785H212.862C216.283 22.9785 219.056 20.2053 219.056 16.7844V7.12963C219.056 3.70874 216.283 0.935566 212.862 0.935566H203.207C199.786 0.935566 197.013 3.70874 197.013 7.12963V22.9785Z" fill="#14726F"/>
<path d="M174.969 22.9785H159.12C155.699 22.9785 152.926 20.2053 152.926 16.7844V7.12963C152.926 3.70874 155.699 0.935566 159.12 0.935566H168.775C172.196 0.935566 174.969 3.70874 174.969 7.12963V22.9785Z" fill="#14726F"/>
<rect x="251.432" y="22.9785" width="22.0429" height="22.0429" rx="6.19407" fill="#14726F"/>
<path d="M273.476 45.0225H289.325C292.746 45.0225 295.519 47.7956 295.519 51.2165V60.8713C295.519 64.2922 292.746 67.0654 289.325 67.0654H279.67C276.249 67.0654 273.476 64.2922 273.476 60.8713V45.0225Z" fill="#14726F"/>
<path d="M251.432 45.0225H235.583C232.162 45.0225 229.389 47.7956 229.389 51.2165V60.8713C229.389 64.2922 232.162 67.0654 235.583 67.0654H245.238C248.659 67.0654 251.432 64.2922 251.432 60.8713V45.0225Z" fill="#14726F"/>
<path d="M273.476 22.9785H289.325C292.746 22.9785 295.519 20.2053 295.519 16.7844V7.12963C295.519 3.70874 292.746 0.935566 289.325 0.935566H279.67C276.249 0.935566 273.476 3.70874 273.476 7.12963V22.9785Z" fill="#14726F"/>
<path d="M251.432 22.9785H235.583C232.162 22.9785 229.389 20.2053 229.389 16.7844V7.12963C229.389 3.70874 232.162 0.935566 235.583 0.935566H245.238C248.659 0.935566 251.432 3.70874 251.432 7.12963V22.9785Z" fill="#14726F"/>
<rect x="327.895" y="22.9785" width="22.0429" height="22.0429" rx="6.19407" fill="#14726F"/>
<path d="M349.939 45.0225H365.788C369.208 45.0225 371.982 47.7956 371.982 51.2165V60.8713C371.982 64.2922 369.208 67.0654 365.788 67.0654H356.133C352.712 67.0654 349.939 64.2922 349.939 60.8713V45.0225Z" fill="#14726F"/>
<path d="M327.895 45.0225H312.046C308.625 45.0225 305.852 47.7956 305.852 51.2165V60.8713C305.852 64.2922 308.625 67.0654 312.046 67.0654H321.701C325.122 67.0654 327.895 64.2922 327.895 60.8713V45.0225Z" fill="#14726F"/>
<path d="M349.939 22.9785H365.788C369.208 22.9785 371.982 20.2053 371.982 16.7844V7.12963C371.982 3.70874 369.208 0.935566 365.788 0.935566H356.133C352.712 0.935566 349.939 3.70874 349.939 7.12963V22.9785Z" fill="#14726F"/>
<path d="M327.895 22.9785H312.046C308.625 22.9785 305.852 20.2053 305.852 16.7844V7.12963C305.852 3.70874 308.625 0.935566 312.046 0.935566H321.701C325.122 0.935566 327.895 3.70874 327.895 7.12963V22.9785Z" fill="#14726F"/>
<rect x="404.358" y="22.9785" width="22.0429" height="22.0429" rx="6.19407" fill="#14726F"/>
<path d="M426.402 45.0225H442.251C445.671 45.0225 448.445 47.7956 448.445 51.2165V60.8713C448.445 64.2922 445.671 67.0654 442.251 67.0654H432.596C429.175 67.0654 426.402 64.2922 426.402 60.8713V45.0225Z" fill="#14726F"/>
<path d="M404.358 45.0225H388.509C385.088 45.0225 382.315 47.7956 382.315 51.2165V60.8713C382.315 64.2922 385.088 67.0654 388.509 67.0654H398.164C401.585 67.0654 404.358 64.2922 404.358 60.8713V45.0225Z" fill="#14726F"/>
<path d="M426.402 22.9785H442.251C445.671 22.9785 448.445 20.2053 448.445 16.7844V7.12963C448.445 3.70874 445.671 0.935566 442.251 0.935566H432.596C429.175 0.935566 426.402 3.70874 426.402 7.12963V22.9785Z" fill="#14726F"/>
<path d="M404.358 22.9785H388.509C385.088 22.9785 382.315 20.2053 382.315 16.7844V7.12963C382.315 3.70874 385.088 0.935566 388.509 0.935566H398.164C401.585 0.935566 404.358 3.70874 404.358 7.12963V22.9785Z" fill="#14726F"/>
<rect x="480.821" y="22.9785" width="22.0429" height="22.0429" rx="6.19407" fill="#14726F"/>
<path d="M502.865 45.0225H518.713C522.134 45.0225 524.908 47.7956 524.908 51.2165V60.8713C524.908 64.2922 522.134 67.0654 518.713 67.0654H509.059C505.638 67.0654 502.865 64.2922 502.865 60.8713V45.0225Z" fill="#14726F"/>
<path d="M480.821 45.0225H464.972C461.551 45.0225 458.778 47.7956 458.778 51.2165V60.8713C458.778 64.2922 461.551 67.0654 464.972 67.0654H474.627C478.047 67.0654 480.821 64.2922 480.821 60.8713V45.0225Z" fill="#14726F"/>
<path d="M502.865 22.9785H518.713C522.134 22.9785 524.908 20.2053 524.908 16.7844V7.12963C524.908 3.70874 522.134 0.935566 518.713 0.935566H509.059C505.638 0.935566 502.865 3.70874 502.865 7.12963V22.9785Z" fill="#14726F"/>
<path d="M480.821 22.9785H464.972C461.551 22.9785 458.778 20.2053 458.778 16.7844V7.12963C458.778 3.70874 461.551 0.935566 464.972 0.935566H474.627C478.047 0.935566 480.821 3.70874 480.821 7.12963V22.9785Z" fill="#14726F"/>
<rect x="557.284" y="22.9785" width="22.0429" height="22.0429" rx="6.19407" fill="#14726F"/>
<path d="M579.328 45.0225H595.176C598.597 45.0225 601.371 47.7956 601.371 51.2165V60.8713C601.371 64.2922 598.597 67.0654 595.176 67.0654H585.522C582.101 67.0654 579.328 64.2922 579.328 60.8713V45.0225Z" fill="#14726F"/>
<path d="M557.284 45.0225H541.435C538.014 45.0225 535.241 47.7956 535.241 51.2165V60.8713C535.241 64.2922 538.014 67.0654 541.435 67.0654H551.09C554.51 67.0654 557.284 64.2922 557.284 60.8713V45.0225Z" fill="#14726F"/>
<path d="M579.328 22.9785H595.176C598.597 22.9785 601.371 20.2053 601.371 16.7844V7.12963C601.371 3.70874 598.597 0.935566 595.176 0.935566H585.522C582.101 0.935566 579.328 3.70874 579.328 7.12963V22.9785Z" fill="#14726F"/>
<path d="M557.284 22.9785H541.435C538.014 22.9785 535.241 20.2053 535.241 16.7844V7.12963C535.241 3.70874 538.014 0.935566 541.435 0.935566H551.09C554.51 0.935566 557.284 3.70874 557.284 7.12963V22.9785Z" fill="#14726F"/>
<rect x="633.747" y="22.9785" width="22.0429" height="22.0429" rx="6.19407" fill="#14726F"/>
<path d="M655.791 45.0225H671.639C675.06 45.0225 677.833 47.7956 677.833 51.2165V60.8713C677.833 64.2922 675.06 67.0654 671.639 67.0654H661.985C658.564 67.0654 655.791 64.2922 655.791 60.8713V45.0225Z" fill="#14726F"/>
<path d="M633.747 45.0225H617.898C614.477 45.0225 611.704 47.7956 611.704 51.2165V60.8713C611.704 64.2922 614.477 67.0654 617.898 67.0654H627.552C630.973 67.0654 633.747 64.2922 633.747 60.8713V45.0225Z" fill="#14726F"/>
<path d="M655.791 22.9785H671.639C675.06 22.9785 677.833 20.2053 677.833 16.7844V7.12963C677.833 3.70874 675.06 0.935566 671.639 0.935566H661.985C658.564 0.935566 655.791 3.70874 655.791 7.12963V22.9785Z" fill="#14726F"/>
<path d="M633.747 22.9785H617.898C614.477 22.9785 611.704 20.2053 611.704 16.7844V7.12963C611.704 3.70874 614.477 0.935566 617.898 0.935566H627.552C630.973 0.935566 633.747 3.70874 633.747 7.12963V22.9785Z" fill="#14726F"/>
<rect x="710.209" y="22.9785" width="22.0429" height="22.0429" rx="6.19407" fill="#14726F"/>
<path d="M732.253 45.0225H748.102C751.523 45.0225 754.296 47.7956 754.296 51.2165V60.8713C754.296 64.2922 751.523 67.0654 748.102 67.0654H738.448C735.027 67.0654 732.253 64.2922 732.253 60.8713V45.0225Z" fill="#14726F"/>
<path d="M710.209 45.0225H694.361C690.94 45.0225 688.167 47.7956 688.167 51.2165V60.8713C688.167 64.2922 690.94 67.0654 694.361 67.0654H704.015C707.436 67.0654 710.209 64.2922 710.209 60.8713V45.0225Z" fill="#14726F"/>
<path d="M732.253 22.9785H748.102C751.523 22.9785 754.296 20.2053 754.296 16.7844V7.12963C754.296 3.70874 751.523 0.935566 748.102 0.935566H738.448C735.027 0.935566 732.253 3.70874 732.253 7.12963V22.9785Z" fill="#14726F"/>
<path d="M710.209 22.9785H694.361C690.94 22.9785 688.167 20.2053 688.167 16.7844V7.12963C688.167 3.70874 690.94 0.935566 694.361 0.935566H704.015C707.436 0.935566 710.209 3.70874 710.209 7.12963V22.9785Z" fill="#14726F"/>
<rect x="786.672" y="22.9785" width="22.0429" height="22.0429" rx="6.19407" fill="#14726F"/>
<path d="M808.716 45.0225H824.565C827.986 45.0225 830.759 47.7956 830.759 51.2165V60.8713C830.759 64.2922 827.986 67.0654 824.565 67.0654H814.91C811.49 67.0654 808.716 64.2922 808.716 60.8713V45.0225Z" fill="#14726F"/>
<path d="M786.672 45.0225H770.824C767.403 45.0225 764.629 47.7956 764.629 51.2165V60.8713C764.629 64.2922 767.403 67.0654 770.824 67.0654H780.478C783.899 67.0654 786.672 64.2922 786.672 60.8713V45.0225Z" fill="#14726F"/>
<path d="M808.716 22.9785H824.565C827.986 22.9785 830.759 20.2053 830.759 16.7844V7.12963C830.759 3.70874 827.986 0.935566 824.565 0.935566H814.91C811.49 0.935566 808.716 3.70874 808.716 7.12963V22.9785Z" fill="#14726F"/>
<path d="M786.672 22.9785H770.824C767.403 22.9785 764.629 20.2053 764.629 16.7844V7.12963C764.629 3.70874 767.403 0.935566 770.824 0.935566H780.478C783.899 0.935566 786.672 3.70874 786.672 7.12963V22.9785Z" fill="#14726F"/>
<rect x="863.135" y="22.9785" width="22.0429" height="22.0429" rx="6.19407" fill="#14726F"/>
<path d="M885.179 45.0225H901.028C904.449 45.0225 907.222 47.7956 907.222 51.2165V60.8713C907.222 64.2922 904.449 67.0654 901.028 67.0654H891.373C887.953 67.0654 885.179 64.2922 885.179 60.8713V45.0225Z" fill="#14726F"/>
<path d="M863.135 45.0225H847.286C843.866 45.0225 841.092 47.7956 841.092 51.2165V60.8713C841.092 64.2922 843.866 67.0654 847.286 67.0654H856.941C860.362 67.0654 863.135 64.2922 863.135 60.8713V45.0225Z" fill="#14726F"/>
<path d="M885.179 22.9785H901.028C904.449 22.9785 907.222 20.2053 907.222 16.7844V7.12963C907.222 3.70874 904.449 0.935566 901.028 0.935566H891.373C887.953 0.935566 885.179 3.70874 885.179 7.12963V22.9785Z" fill="#14726F"/>
<path d="M863.135 22.9785H847.286C843.866 22.9785 841.092 20.2053 841.092 16.7844V7.12963C841.092 3.70874 843.866 0.935566 847.286 0.935566H856.941C860.362 0.935566 863.135 3.70874 863.135 7.12963V22.9785Z" fill="#14726F"/>
<rect x="939.598" y="22.9785" width="22.0429" height="22.0429" rx="6.19407" fill="#14726F"/>
<path d="M961.642 45.0225H977.491C980.912 45.0225 983.685 47.7956 983.685 51.2165V60.8713C983.685 64.2922 980.912 67.0654 977.491 67.0654H967.836C964.415 67.0654 961.642 64.2922 961.642 60.8713V45.0225Z" fill="#14726F"/>
<path d="M939.598 45.0225H923.749C920.328 45.0225 917.555 47.7956 917.555 51.2165V60.8713C917.555 64.2922 920.328 67.0654 923.749 67.0654H933.404C936.825 67.0654 939.598 64.2922 939.598 60.8713V45.0225Z" fill="#14726F"/>
<path d="M961.642 22.9785H977.491C980.912 22.9785 983.685 20.2053 983.685 16.7844V7.12963C983.685 3.70874 980.912 0.935566 977.491 0.935566H967.836C964.415 0.935566 961.642 3.70874 961.642 7.12963V22.9785Z" fill="#14726F"/>
<path d="M939.598 22.9785H923.749C920.328 22.9785 917.555 20.2053 917.555 16.7844V7.12963C917.555 3.70874 920.328 0.935566 923.749 0.935566H933.404C936.825 0.935566 939.598 3.70874 939.598 7.12963V22.9785Z" fill="#14726F"/>
<rect x="1016.06" y="22.9785" width="22.0429" height="22.0429" rx="6.19407" fill="#14726F"/>
<path d="M1038.11 45.0225H1053.95C1057.38 45.0225 1060.15 47.7956 1060.15 51.2165V60.8713C1060.15 64.2922 1057.37 67.0654 1053.95 67.0654H1044.3C1040.88 67.0654 1038.11 64.2922 1038.11 60.8713V45.0225Z" fill="#14726F"/>
<path d="M1016.06 45.0225H1000.21C996.792 45.0225 994.018 47.7956 994.018 51.2165V60.8713C994.018 64.2922 996.792 67.0654 1000.21 67.0654H1009.87C1013.29 67.0654 1016.06 64.2922 1016.06 60.8713V45.0225Z" fill="#14726F"/>
<path d="M1038.11 22.9785H1053.95C1057.38 22.9785 1060.15 20.2053 1060.15 16.7844V7.12963C1060.15 3.70874 1057.37 0.935566 1053.95 0.935566H1044.3C1040.88 0.935566 1038.11 3.70874 1038.11 7.12963V22.9785Z" fill="#14726F"/>
<path d="M1016.06 22.9785H1000.21C996.792 22.9785 994.018 20.2053 994.018 16.7844V7.12963C994.018 3.70874 996.792 0.935566 1000.21 0.935566H1009.87C1013.29 0.935566 1016.06 3.70874 1016.06 7.12963V22.9785Z" fill="#14726F"/>
<rect x="1092.52" y="22.9785" width="22.0429" height="22.0429" rx="6.19407" fill="#14726F"/>
<path d="M1114.57 45.0225H1130.42C1133.84 45.0225 1136.61 47.7956 1136.61 51.2165V60.8713C1136.61 64.2922 1133.84 67.0654 1130.42 67.0654H1120.76C1117.34 67.0654 1114.57 64.2922 1114.57 60.8713V45.0225Z" fill="#14726F"/>
<path d="M1092.52 45.0225H1076.68C1073.25 45.0225 1070.48 47.7956 1070.48 51.2165V60.8713C1070.48 64.2922 1073.25 67.0654 1076.68 67.0654H1086.33C1089.75 67.0654 1092.52 64.2922 1092.52 60.8713V45.0225Z" fill="#14726F"/>
<path d="M1114.57 22.9785H1130.42C1133.84 22.9785 1136.61 20.2053 1136.61 16.7844V7.12963C1136.61 3.70874 1133.84 0.935566 1130.42 0.935566H1120.76C1117.34 0.935566 1114.57 3.70874 1114.57 7.12963V22.9785Z" fill="#14726F"/>
<path d="M1092.52 22.9785H1076.68C1073.25 22.9785 1070.48 20.2053 1070.48 16.7844V7.12963C1070.48 3.70874 1073.25 0.935566 1076.68 0.935566H1086.33C1089.75 0.935566 1092.52 3.70874 1092.52 7.12963V22.9785Z" fill="#14726F"/>
<rect x="1168.99" y="22.9785" width="22.0429" height="22.0429" rx="6.19407" fill="#14726F"/>
<path d="M1191.03 45.0225H1206.88C1210.3 45.0225 1213.07 47.7956 1213.07 51.2165V60.8713C1213.07 64.2922 1210.3 67.0654 1206.88 67.0654H1197.23C1193.8 67.0654 1191.03 64.2922 1191.03 60.8713V45.0225Z" fill="#14726F"/>
<path d="M1168.99 45.0225H1153.14C1149.72 45.0225 1146.94 47.7956 1146.94 51.2165V60.8713C1146.94 64.2922 1149.72 67.0654 1153.14 67.0654H1162.79C1166.21 67.0654 1168.99 64.2922 1168.99 60.8713V45.0225Z" fill="#14726F"/>
<path d="M1191.03 22.9785H1206.88C1210.3 22.9785 1213.07 20.2053 1213.07 16.7844V7.12963C1213.07 3.70874 1210.3 0.935566 1206.88 0.935566H1197.23C1193.8 0.935566 1191.03 3.70874 1191.03 7.12963V22.9785Z" fill="#14726F"/>
<path d="M1168.99 22.9785H1153.14C1149.72 22.9785 1146.94 20.2053 1146.94 16.7844V7.12963C1146.94 3.70874 1149.72 0.935566 1153.14 0.935566H1162.79C1166.21 0.935566 1168.99 3.70874 1168.99 7.12963V22.9785Z" fill="#14726F"/>
<rect x="1245.45" y="22.9785" width="22.0429" height="22.0429" rx="6.19407" fill="#14726F"/>
<path d="M1267.49 45.0225H1283.34C1286.76 45.0225 1289.54 47.7956 1289.54 51.2165V60.8713C1289.54 64.2922 1286.76 67.0654 1283.34 67.0654H1273.69C1270.27 67.0654 1267.49 64.2922 1267.49 60.8713V45.0225Z" fill="#14726F"/>
<path d="M1245.45 45.0225H1229.6C1226.18 45.0225 1223.41 47.7956 1223.41 51.2165V60.8713C1223.41 64.2922 1226.18 67.0654 1229.6 67.0654H1239.26C1242.68 67.0654 1245.45 64.2922 1245.45 60.8713V45.0225Z" fill="#14726F"/>
<path d="M1267.49 22.9785H1283.34C1286.76 22.9785 1289.54 20.2053 1289.54 16.7844V7.12963C1289.54 3.70874 1286.76 0.935566 1283.34 0.935566H1273.69C1270.27 0.935566 1267.49 3.70874 1267.49 7.12963V22.9785Z" fill="#14726F"/>
<path d="M1245.45 22.9785H1229.6C1226.18 22.9785 1223.41 20.2053 1223.41 16.7844V7.12963C1223.41 3.70874 1226.18 0.935566 1229.6 0.935566H1239.26C1242.68 0.935566 1245.45 3.70874 1245.45 7.12963V22.9785Z" fill="#14726F"/>
<rect x="1321.91" y="22.9785" width="22.0429" height="22.0429" rx="6.19407" fill="#14726F"/>
<path d="M1343.96 45.0225H1359.81C1363.23 45.0225 1366 47.7956 1366 51.2165V60.8713C1366 64.2922 1363.23 67.0654 1359.81 67.0654H1350.15C1346.73 67.0654 1343.96 64.2922 1343.96 60.8713V45.0225Z" fill="#14726F"/>
<path d="M1321.91 45.0225H1306.06C1302.64 45.0225 1299.87 47.7956 1299.87 51.2165V60.8713C1299.87 64.2922 1302.64 67.0654 1306.06 67.0654H1315.72C1319.14 67.0654 1321.91 64.2922 1321.91 60.8713V45.0225Z" fill="#14726F"/>
<path d="M1343.96 22.9785H1359.81C1363.23 22.9785 1366 20.2053 1366 16.7844V7.12963C1366 3.70874 1363.23 0.935566 1359.81 0.935566H1350.15C1346.73 0.935566 1343.96 3.70874 1343.96 7.12963V22.9785Z" fill="#14726F"/>
<path d="M1321.91 22.9785H1306.06C1302.64 22.9785 1299.87 20.2053 1299.87 16.7844V7.12963C1299.87 3.70874 1302.64 0.935566 1306.06 0.935566H1315.72C1319.14 0.935566 1321.91 3.70874 1321.91 7.12963V22.9785Z" fill="#14726F"/>
</svg>
